  0
SECTION
  2
HEADER
  9
$ACADVER
  1
AC1024
  9
$ACADMAINTVER
 70
     6
  9
$DWGCODEPAGE
  3
ANSI_1252
  9
$INSBASE
 10
0.0
 20
0.0
 30
0.0
  9
$EXTMIN
 10
1.000000000000000E+20
 20
1.000000000000000E+20
 30
1.000000000000000E+20
  9
$EXTMAX
 10
-1.000000000000000E+20
 20
-1.000000000000000E+20
 30
-1.000000000000000E+20
  9
$LIMMIN
 10
0.0
 20
0.0
  9
$LIMMAX
 10
12.0
 20
9.0
  9
$ORTHOMODE
 70
     0
  9
$REGENMODE
 70
     1
  9
$FILLMODE
 70
     1
  9
$QTEXTMODE
 70
     0
  9
$MIRRTEXT
 70
     1
  9
$LTSCALE
 40
1.0
  9
$ATTMODE
 70
     1
  9
$TEXTSIZE
 40
0.2
  9
$TRACEWID
 40
0.05
  9
$TEXTSTYLE
  7
Standard
  9
$CLAYER
  8
0
  9
$CELTYPE
  6
ByLayer
  9
$CECOLOR
 62
   256
  9
$CELTSCALE
 40
1.0
  9
$DISPSILH
 70
     0
  9
$DIMSCALE
 40
1.0
  9
$DIMASZ
 40
0.18
  9
$DIMEXO
 40
0.0625
  9
$DIMDLI
 40
0.38
  9
$DIMRND
 40
0.0
  9
$DIMDLE
 40
0.0
  9
$DIMEXE
 40
0.18
  9
$DIMTP
 40
0.0
  9
$DIMTM
 40
0.0
  9
$DIMTXT
 40
0.18
  9
$DIMCEN
 40
0.09
  9
$DIMTSZ
 40
0.0
  9
$DIMTOL
 70
     0
  9
$DIMLIM
 70
     0
  9
$DIMTIH
 70
     1
  9
$DIMTOH
 70
     1
  9
$DIMSE1
 70
     0
  9
$DIMSE2
 70
     0
  9
$DIMTAD
 70
     0
  9
$DIMZIN
 70
     0
  9
$DIMBLK
  1

  9
$DIMASO
 70
     1
  9
$DIMSHO
 70
     1
  9
$DIMPOST
  1

  9
$DIMAPOST
  1

  9
$DIMALT
 70
     0
  9
$DIMALTD
 70
     2
  9
$DIMALTF
 40
25.4
  9
$DIMLFAC
 40
1.0
  9
$DIMTOFL
 70
     0
  9
$DIMTVP
 40
0.0
  9
$DIMTIX
 70
     0
  9
$DIMSOXD
 70
     0
  9
$DIMSAH
 70
     0
  9
$DIMBLK1
  1

  9
$DIMBLK2
  1

  9
$DIMSTYLE
  2
Standard
  9
$DIMCLRD
 70
     0
  9
$DIMCLRE
 70
     0
  9
$DIMCLRT
 70
     0
  9
$DIMTFAC
 40
1.0
  9
$DIMGAP
 40
0.09
  9
$DIMJUST
 70
     0
  9
$DIMSD1
 70
     0
  9
$DIMSD2
 70
     0
  9
$DIMTOLJ
 70
     1
  9
$DIMTZIN
 70
     0
  9
$DIMALTZ
 70
     0
  9
$DIMALTTZ
 70
     0
  9
$DIMUPT
 70
     0
  9
$DIMDEC
 70
     4
  9
$DIMTDEC
 70
     4
  9
$DIMALTU
 70
     2
  9
$DIMALTTD
 70
     2
  9
$DIMTXSTY
  7
Standard
  9
$DIMAUNIT
 70
     0
  9
$DIMADEC
 70
     0
  9
$DIMALTRND
 40
0.0
  9
$DIMAZIN
 70
     0
  9
$DIMDSEP
 70
    46
  9
$DIMATFIT
 70
     3
  9
$DIMFRAC
 70
     0
  9
$DIMLDRBLK
  1

  9
$DIMLUNIT
 70
     2
  9
$DIMLWD
 70
    -2
  9
$DIMLWE
 70
    -2
  9
$DIMTMOVE
 70
     0
  9
$DIMFXL
 40
1.0
  9
$DIMFXLON
 70
     0
  9
$DIMJOGANG
 40
0.7853981633974483
  9
$DIMTFILL
 70
     0
  9
$DIMTFILLCLR
 70
     0
  9
$DIMARCSYM
 70
     0
  9
$DIMLTYPE
  6

  9
$DIMLTEX1
  6

  9
$DIMLTEX2
  6

  9
$DIMTXTDIRECTION
 70
     0
  9
$LUNITS
 70
     2
  9
$LUPREC
 70
     4
  9
$SKETCHINC
 40
0.1
  9
$FILLETRAD
 40
0.5
  9
$AUNITS
 70
     0
  9
$AUPREC
 70
     0
  9
$MENU
  1
.
  9
$ELEVATION
 40
0.0
  9
$PELEVATION
 40
0.0
  9
$THICKNESS
 40
0.0
  9
$LIMCHECK
 70
     0
  9
$CHAMFERA
 40
0.5
  9
$CHAMFERB
 40
0.5
  9
$CHAMFERC
 40
1.0
  9
$CHAMFERD
 40
0.0
  9
$SKPOLY
 70
     0
  9
$TDCREATE
 40
2458955.394902349
  9
$TDUCREATE
 40
2458955.561569016
  9
$TDUPDATE
 40
2458955.3949025
  9
$TDUUPDATE
 40
2458955.561569167
  9
$TDINDWG
 40
0.0000000116
  9
$TDUSRTIMER
 40
0.0000000116
  9
$USRTIMER
 70
     1
  9
$ANGBASE
 50
0.0
  9
$ANGDIR
 70
     0
  9
$PDMODE
 70
     0
  9
$PDSIZE
 40
0.0
  9
$PLINEWID
 40
0.0
  9
$SPLFRAME
 70
     0
  9
$SPLINETYPE
 70
     6
  9
$SPLINESEGS
 70
     8
  9
$HANDSEED
  5
88
  9
$SURFTAB1
 70
     6
  9
$SURFTAB2
 70
     6
  9
$SURFTYPE
 70
     6
  9
$SURFU
 70
     6
  9
$SURFV
 70
     6
  9
$UCSBASE
  2

  9
$UCSNAME
  2

  9
$UCSORG
 10
0.0
 20
0.0
 30
0.0
  9
$UCSXDIR
 10
1.0
 20
0.0
 30
0.0
  9
$UCSYDIR
 10
0.0
 20
1.0
 30
0.0
  9
$UCSORTHOREF
  2

  9
$UCSORTHOVIEW
 70
     0
  9
$UCSORGTOP
 10
0.0
 20
0.0
 30
0.0
  9
$UCSORGBOTTOM
 10
0.0
 20
0.0
 30
0.0
  9
$UCSORGLEFT
 10
0.0
 20
0.0
 30
0.0
  9
$UCSORGRIGHT
 10
0.0
 20
0.0
 30
0.0
  9
$UCSORGFRONT
 10
0.0
 20
0.0
 30
0.0
  9
$UCSORGBACK
 10
0.0
 20
0.0
 30
0.0
  9
$PUCSBASE
  2

  9
$PUCSNAME
  2

  9
$PUCSORG
 10
0.0
 20
0.0
 30
0.0
  9
$PUCSXDIR
 10
1.0
 20
0.0
 30
0.0
  9
$PUCSYDIR
 10
0.0
 20
1.0
 30
0.0
  9
$PUCSORTHOREF
  2

  9
$PUCSORTHOVIEW
 70
     0
  9
$PUCSORGTOP
 10
0.0
 20
0.0
 30
0.0
  9
$PUCSORGBOTTOM
 10
0.0
 20
0.0
 30
0.0
  9
$PUCSORGLEFT
 10
0.0
 20
0.0
 30
0.0
  9
$PUCSORGRIGHT
 10
0.0
 20
0.0
 30
0.0
  9
$PUCSORGFRONT
 10
0.0
 20
0.0
 30
0.0
  9
$PUCSORGBACK
 10
0.0
 20
0.0
 30
0.0
  9
$USERI1
 70
     0
  9
$USERI2
 70
     0
  9
$USERI3
 70
     0
  9
$USERI4
 70
     0
  9
$USERI5
 70
     0
  9
$USERR1
 40
0.0
  9
$USERR2
 40
0.0
  9
$USERR3
 40
0.0
  9
$USERR4
 40
0.0
  9
$USERR5
 40
0.0
  9
$WORLDVIEW
 70
     1
  9
$SHADEDGE
 70
     3
  9
$SHADEDIF
 70
    70
  9
$TILEMODE
 70
     1
  9
$MAXACTVP
 70
    64
  9
$PINSBASE
 10
0.0
 20
0.0
 30
0.0
  9
$PLIMCHECK
 70
     0
  9
$PEXTMIN
 10
1.000000000000000E+20
 20
1.000000000000000E+20
 30
1.000000000000000E+20
  9
$PEXTMAX
 10
-1.000000000000000E+20
 20
-1.000000000000000E+20
 30
-1.000000000000000E+20
  9
$PLIMMIN
 10
0.0
 20
0.0
  9
$PLIMMAX
 10
12.0
 20
9.0
  9
$UNITMODE
 70
     0
  9
$VISRETAIN
 70
     1
  9
$PLINEGEN
 70
     0
  9
$PSLTSCALE
 70
     1
  9
$TREEDEPTH
 70
  3020
  9
$CMLSTYLE
  2
Standard
  9
$CMLJUST
 70
     0
  9
$CMLSCALE
 40
1.0
  9
$PROXYGRAPHICS
 70
     1
  9
$MEASUREMENT
 70
     0
  9
$CELWEIGHT
370
    -1
  9
$ENDCAPS
280
     0
  9
$JOINSTYLE
280
     0
  9
$LWDISPLAY
290
     1
  9
$INSUNITS
 70
     1
  9
$HYPERLINKBASE
  1

  9
$STYLESHEET
  1

  9
$XEDIT
290
     1
  9
$CEPSNTYPE
380
     0
  9
$PSTYLEMODE
290
     1
  9
$FINGERPRINTGUID
  2
{C978C471-3216-4F31-B14C-27A6B3926B9E}
  9
$VERSIONGUID
  2
{FAEB1C32-E019-11D5-929B-00C0DF256EC4}
  9
$EXTNAMES
290
     1
  9
$PSVPSCALE
 40
0.0
  9
$OLESTARTUP
290
     0
  9
$SORTENTS
280
   127
  9
$INDEXCTL
280
     0
  9
$HIDETEXT
280
     1
  9
$XCLIPFRAME
280
     2
  9
$HALOGAP
280
     0
  9
$OBSCOLOR
 70
   257
  9
$OBSLTYPE
280
     0
  9
$INTERSECTIONDISPLAY
280
     0
  9
$INTERSECTIONCOLOR
 70
   257
  9
$DIMASSOC
280
     2
  9
$PROJECTNAME
  1

  9
$CAMERADISPLAY
290
     0
  9
$LENSLENGTH
 40
50.0
  9
$CAMERAHEIGHT
 40
0.0
  9
$STEPSPERSEC
 40
2.0
  9
$STEPSIZE
 40
6.0
  9
$3DDWFPREC
 40
2.0
  9
$PSOLWIDTH
 40
0.25
  9
$PSOLHEIGHT
 40
4.0
  9
$LOFTANG1
 40
1.570796326794897
  9
$LOFTANG2
 40
1.570796326794897
  9
$LOFTMAG1
 40
0.0
  9
$LOFTMAG2
 40
0.0
  9
$LOFTPARAM
 70
     7
  9
$LOFTNORMALS
280
     1
  9
$LATITUDE
 40
37.795
  9
$LONGITUDE
 40
-122.394
  9
$NORTHDIRECTION
 40
0.0
  9
$TIMEZONE
 70
 -8000
  9
$LIGHTGLYPHDISPLAY
280
     1
  9
$TILEMODELIGHTSYNCH
280
     1
  9
$CMATERIAL
347
3C
  9
$SOLIDHIST
280
     1
  9
$SHOWHIST
280
     1
  9
$DWFFRAME
280
     2
  9
$DGNFRAME
280
     2
  9
$REALWORLDSCALE
290
     1
  9
$INTERFERECOLOR
 62
   256
  9
$CSHADOW
280
     0
  9
$SHADOWPLANELOCATION
 40
0.0
  0
ENDSEC
  0
SECTION
  2
CLASSES
  0
CLASS
  1
ACDBDICTIONARYWDFLT
  2
AcDbDictionaryWithDefault
  3
ObjectDBX Classes
 90
        0
 91
        4
280
     0
281
     0
  0
CLASS
  1
VISUALSTYLE
  2
AcDbVisualStyle
  3
ObjectDBX Classes
 90
     4095
 91
        4
280
     0
281
     0
  0
CLASS
  1
MATERIAL
  2
AcDbMaterial
  3
ObjectDBX Classes
 90
     1153
 91
        4
280
     0
281
     0
  0
CLASS
  1
SUN
  2
AcDbSun
  3
SCENEOE
 90
     1024
 91
        4
280
     0
281
     0
  0
ENDSEC
  0
SECTION
  2
TABLES
  0
TABLE
  2
VPORT
  5
8
330
0
100
AcDbSymbolTable
 70
     1
  0
VPORT
  5
29
330
8
100
AcDbSymbolTableRecord
100
AcDbViewportTableRecord
  2
*Active
 70
     0
 10
0.0
 20
0.0
 11
1.0
 21
1.0
 12
0.0
 22
0.0
 13
0.0
 23
0.0
 14
0.5
 24
0.5
 15
0.5
 25
0.5
 16
0.0
 26
0.0
 36
1.0
 17
296.0
 27
-415.5
 37
0.0
 40
110.0
 41
3.690909090909091
 42
50.0
 43
0.0
 44
0.0
 50
0.0
 51
0.0
 71
     0
 72
   100
 73
     1
 74
     3
 75
     0
 76
     0
 77
     0
 78
     0
281
     0
 65
     1
110
0.0
120
0.0
130
0.0
111
1.0
121
0.0
131
0.0
112
0.0
122
1.0
132
0.0
 79
     0
146
0.0
 60
     3
 61
     5
292
     1
282
     1
141
0.0
142
0.0
 63
   250
361
3F
  0
ENDTAB
  0
TABLE
  2
LTYPE
  5
5
330
0
100
AcDbSymbolTable
 70
     1
  0
LTYPE
  5
14
330
5
100
AcDbSymbolTableRecord
100
AcDbLinetypeTableRecord
  2
ByBlock
 70
     0
  3

 72
    65
 73
     0
 40
0.0
  0
LTYPE
  5
15
330
5
100
AcDbSymbolTableRecord
100
AcDbLinetypeTableRecord
  2
ByLayer
 70
     0
  3

 72
    65
 73
     0
 40
0.0
  0
LTYPE
  5
16
330
5
100
AcDbSymbolTableRecord
100
AcDbLinetypeTableRecord
  2
Continuous
 70
     0
  3
Solid line
 72
    65
 73
     0
 40
0.0
  0
ENDTAB
  0
TABLE
  2
LAYER
  5
2
330
0
100
AcDbSymbolTable
 70
     2
  0
LAYER
  5
10
330
2
100
AcDbSymbolTableRecord
100
AcDbLayerTableRecord
  2
0
 70
     0
 62
     7
  6
Continuous
370
    -3
390
F
347
3E
  0
LAYER
  5
40
330
2
100
AcDbSymbolTableRecord
100
AcDbLayerTableRecord
  2
Layer 1
 70
     0
 62
     7
  6
Continuous
370
    -3
390
F
347
3E
  0
ENDTAB
  0
TABLE
  2
STYLE
  5
3
330
0
100
AcDbSymbolTable
 70
     1
  0
STYLE
  5
11
330
3
100
AcDbSymbolTableRecord
100
AcDbTextStyleTableRecord
  2
Standard
 70
     0
 40
0.0
 41
1.0
 50
0.0
 71
     0
 42
0.2
  3
txt
  4

  0
ENDTAB
  0
TABLE
  2
VIEW
  5
6
330
0
100
AcDbSymbolTable
 70
     0
  0
ENDTAB
  0
TABLE
  2
UCS
  5
7
330
0
100
AcDbSymbolTable
 70
     0
  0
ENDTAB
  0
TABLE
  2
APPID
  5
9
330
0
100
AcDbSymbolTable
 70
     1
  0
APPID
  5
12
330
9
100
AcDbSymbolTableRecord
100
AcDbRegAppTableRecord
  2
ACAD
 70
     0
  0
ENDTAB
  0
TABLE
  2
DIMSTYLE
  5
A
330
0
100
AcDbSymbolTable
 70
     1
100
AcDbDimStyleTable
  0
DIMSTYLE
105
27
330
A
100
AcDbSymbolTableRecord
100
AcDbDimStyleTableRecord
  2
Standard
 70
     0
178
     0
340
11
  0
ENDTAB
  0
TABLE
  2
BLOCK_RECORD
  5
1
330
0
100
AcDbSymbolTable
 70
     4
  0
BLOCK_RECORD
  5
1F
330
1
100
AcDbSymbolTableRecord
100
AcDbBlockTableRecord
  2
*Model_Space
340
22
 70
     0
280
     1
281
     0
  0
BLOCK_RECORD
  5
1B
330
1
100
AcDbSymbolTableRecord
100
AcDbBlockTableRecord
  2
*Paper_Space
340
1E
 70
     0
280
     1
281
     0
  0
BLOCK_RECORD
  5
23
330
1
100
AcDbSymbolTableRecord
100
AcDbBlockTableRecord
  2
*Paper_Space0
340
26
 70
     0
280
     1
281
     0
  0
BLOCK_RECORD
  5
41
330
1
100
AcDbSymbolTableRecord
100
AcDbBlockTableRecord
  2
block 2
340
0
102
{BLKREFS
331
42
102
}
 70
     0
280
     1
281
     0
  0
BLOCK_RECORD
  5
45
330
1
100
AcDbSymbolTableRecord
100
AcDbBlockTableRecord
  2
block 3
340
0
102
{BLKREFS
331
46
102
}
 70
     0
280
     1
281
     0
  0
BLOCK_RECORD
  5
77
330
1
100
AcDbSymbolTableRecord
100
AcDbBlockTableRecord
  2
block 4
340
0
102
{BLKREFS
331
78
102
}
 70
     0
280
     1
281
     0
  0
ENDTAB
  0
ENDSEC
  0
SECTION
  2
BLOCKS
  0
BLOCK
  5
20
330
1F
100
AcDbEntity
  8
0
100
AcDbBlockBegin
  2
*Model_Space
 70
     0
 10
0.0
 20
0.0
 30
0.0
  3
*Model_Space
  1

  0
ENDBLK
  5
21
330
1F
100
AcDbEntity
  8
0
100
AcDbBlockEnd
  0
BLOCK
  5
1C
330
1B
100
AcDbEntity
 67
     1
  8
0
100
AcDbBlockBegin
  2
*Paper_Space
 70
     0
 10
0.0
 20
0.0
 30
0.0
  3
*Paper_Space
  1

  0
ENDBLK
  5
1D
330
1B
100
AcDbEntity
 67
     1
  8
0
100
AcDbBlockEnd
  0
BLOCK
  5
24
330
23
100
AcDbEntity
  8
0
100
AcDbBlockBegin
  2
*Paper_Space0
 70
     0
 10
0.0
 20
0.0
 30
0.0
  3
*Paper_Space0
  1

  0
ENDBLK
  5
25
330
23
100
AcDbEntity
  8
0
100
AcDbBlockEnd
  0
BLOCK
  5
43
330
41
100
AcDbEntity
  8
0
100
AcDbBlockBegin
  2
block 2
 70
     0
 10
0.0
 20
0.0
 30
0.0
  3
block 2
  1

  0
INSERT
  5
46
330
41
100
AcDbEntity
  8
Layer 1
100
AcDbBlockReference
  2
block 3
 10
0.0
 20
0.0
 30
0.0
  0
INSERT
  5
78
330
41
100
AcDbEntity
  8
Layer 1
100
AcDbBlockReference
  2
block 4
 10
0.0
 20
0.0
 30
0.0
  0
ENDBLK
  5
44
330
41
100
AcDbEntity
  8
0
100
AcDbBlockEnd
  0
BLOCK
  5
47
330
45
100
AcDbEntity
  8
0
100
AcDbBlockBegin
  2
block 3
 70
     0
 10
0.0
 20
0.0
 30
0.0
  3
block 3
  1

  0
SPLINE
  5
49
330
45
100
AcDbEntity
  8
Layer 1
370
     0
100
AcDbSpline
210
0.0
220
0.0
230
1.0
 70
    11
 71
     3
 72
    53
 73
    49
 74
     0
 42
0.0000000001
 43
0.0000000001
 12
1.0
 22
0.0
 32
0.0
 13
1.0
 23
0.0
 33
0.0
 40
0.0
 40
0.0
 40
0.0
 40
0.0
 40
1.0
 40
1.0
 40
1.0
 40
2.0
 40
2.0
 40
2.0
 40
3.0
 40
3.0
 40
3.0
 40
4.0
 40
4.0
 40
4.0
 40
5.0
 40
5.0
 40
5.0
 40
6.0
 40
6.0
 40
6.0
 40
7.0
 40
7.0
 40
7.0
 40
8.0
 40
8.0
 40
8.0
 40
9.0
 40
9.0
 40
9.0
 40
10.0
 40
10.0
 40
10.0
 40
11.0
 40
11.0
 40
11.0
 40
12.0
 40
12.0
 40
12.0
 40
13.0
 40
13.0
 40
13.0
 40
14.0
 40
14.0
 40
14.0
 40
15.0
 40
15.0
 40
15.0
 40
16.0
 40
16.0
 40
16.0
 40
16.0
 10
142.5641513641021
 20
-453.0
 30
0.0
 10
138.2961991010625
 20
-453.0
 30
0.0
 10
134.3154370699431
 20
-452.1517297094924
 30
0.0
 10
130.6233430935481
 20
-450.4591299892945
 30
0.0
 10
126.9297712943489
 20
-448.7665302690948
 30
0.0
 10
123.728807097069
 20
-446.3094035507147
 30
0.0
 10
121.0199578941083
 20
-443.0907054797663
 30
0.0
 10
118.3091382607399
 20
-439.8739778392264
 30
0.0
 10
116.1924033952873
 20
-435.9262205174346
 30
0.0
 10
114.6682754749454
 20
-431.2513743752097
 30
0.0
 10
113.1436549470009
 20
-426.576528232983
 30
0.0
 10
112.3815909868299
 20
-421.2918338795807
 30
0.0
 10
112.3815909868299
 20
-415.3982765302026
 30
0.0
 10
112.3815909868299
 20
-409.639693663752
 30
0.0
 10
113.1264136809341
 20
-404.4397278178803
 30
0.0
 10
114.6175368919476
 20
-399.7983789925856
 30
0.0
 10
116.1066896725533
 20
-395.1585079900951
 30
0.0
 10
118.1741637778132
 20
-391.2284845419736
 30
0.0
 10
120.8165109545153
 20
-388.0097864710251
 30
0.0
 10
123.4588581312164
 20
-384.7930588304835
 30
0.0
 10
126.5741086057624
 20
-382.3191834536392
 30
0.0
 10
130.1662032389668
 20
-380.5911159861016
 30
0.0
 10
133.7563274417635
 20
-378.8635411261666
 30
0.0
 10
137.686350889885
 20
-378.0
 30
0.0
 10
141.9547957605264
 20
-378.0
 30
0.0
 10
146.2227480235651
 20
-378.0
 30
0.0
 10
150.169027522551
 20
-378.8635411261666
 30
0.0
 10
153.7941268650839
 20
-380.5911159861016
 30
0.0
 10
157.4177483848107
 20
-382.3191834536392
 30
0.0
 10
160.5522105558312
 20
-384.7930588304835
 30
0.0
 10
163.1945577325332
 20
-388.0097864710251
 30
0.0
 10
165.8364123016327
 20
-391.2284845419736
 30
0.0
 10
167.8851673180197
 20
-395.1585079900951
 30
0.0
 10
169.3427932121031
 20
-399.7983789925856
 30
0.0
 10
170.7989412833795
 20
-404.4397278178803
 30
0.0
 10
171.5275079266203
 20
-409.639693663752
 30
0.0
 10
171.5275079266203
 20
-415.3982765302026
 30
0.0
 10
171.5275079266203
 20
-421.2258244609238
 30
0.0
 10
170.8161825494471
 20
-426.4592876237275
 30
0.0
 10
169.3935317951009
 20
-431.0986660186136
 30
0.0
 10
167.9708810407537
 20
-435.7410000591135
 30
0.0
 10
165.9713867845585
 20
-439.6867869504968
 30
0.0
 10
163.3975120645246
 20
-442.9389823383754
 30
0.0
 10
160.8221595216837
 20
-446.1901925110506
 30
0.0
 10
157.7576476301365
 20
-448.6808165463608
 30
0.0
 10
154.2005281366683
 20
-450.4078987986941
 30
0.0
 10
150.6434086432
 20
-452.1359662662308
 30
0.0
 10
146.764616385678
 20
-453.0
 30
0.0
 10
142.5641513641021
 20
-453.0
 30
0.0
  0
SPLINE
  5
4A
330
45
100
AcDbEntity
  8
Layer 1
370
     0
100
AcDbSpline
210
0.0
220
0.0
230
1.0
 70
    11
 71
     3
 72
    41
 73
    37
 74
     0
 42
0.0000000001
 43
0.0000000001
 12
1.0
 22
0.0
 32
0.0
 13
1.0
 23
0.0
 33
0.0
 40
0.0
 40
0.0
 40
0.0
 40
0.0
 40
1.0
 40
1.0
 40
1.0
 40
2.0
 40
2.0
 40
2.0
 40
3.0
 40
3.0
 40
3.0
 40
4.0
 40
4.0
 40
4.0
 40
5.0
 40
5.0
 40
5.0
 40
6.0
 40
6.0
 40
6.0
 40
7.0
 40
7.0
 40
7.0
 40
8.0
 40
8.0
 40
8.0
 40
9.0
 40
9.0
 40
9.0
 40
10.0
 40
10.0
 40
10.0
 40
11.0
 40
11.0
 40
11.0
 40
12.0
 40
12.0
 40
12.0
 40
12.0
 10
141.9547957605264
 20
-390.9063191703171
 30
0.0
 10
137.0765026787076
 20
-390.9063191703171
 30
0.0
 10
133.0784993815205
 20
-392.9388181358418
 30
0.0
 10
129.9627562993728
 20
-397.0038160668882
 30
0.0
 10
126.8460280020217
 20
-401.0688139979375
 30
0.0
 10
125.2879101571471
 20
-407.2012860342456
 30
0.0
 10
125.2879101571471
 20
-415.3982765302026
 30
0.0
 10
125.2879101571471
 20
-419.4632744612518
 30
0.0
 10
125.7278087456625
 20
-423.0376352207859
 30
0.0
 10
126.6090837454985
 20
-426.1193883784017
 30
0.0
 10
127.4888809225286
 20
-429.2031119664243
 30
0.0
 10
128.6750800279533
 20
-431.7597454203915
 30
0.0
 10
130.1662032389668
 20
-433.7922443859152
 30
0.0
 10
131.6553560195716
 20
-435.8247433514389
 30
0.0
 10
133.4179060192437
 20
-437.3488712717808
 30
0.0
 10
135.4504049847674
 20
-438.3656133621462
 30
0.0
 10
137.482903950292
 20
-439.3813702373063
 30
0.0
 10
139.6503773987415
 20
-439.8897412824881
 30
0.0
 10
141.9547957605264
 20
-439.8897412824881
 30
0.0
 10
144.3252235409673
 20
-439.8897412824881
 30
0.0
 10
146.5276721291539
 20
-439.3813702373063
 30
0.0
 10
148.5601710946785
 20
-438.3656133621462
 30
0.0
 10
150.5926700602022
 20
-437.3488712717808
 30
0.0
 10
152.3537422370682
 20
-435.8247433514389
 30
0.0
 10
153.8448654480817
 20
-433.7922443859152
 30
0.0
 10
155.3345108362892
 20
-431.7597454203915
 30
0.0
 10
156.5029760680445
 20
-429.2031119664243
 30
0.0
 10
157.3507537509495
 20
-426.1193883784017
 30
0.0
 10
158.1970536110493
 20
-423.0376352207859
 30
0.0
 10
158.6211887563031
 20
-419.4632744612518
 30
0.0
 10
158.6211887563031
 20
-415.3982765302026
 30
0.0
 10
158.6211887563031
 20
-407.2012860342456
 30
0.0
 10
157.1808041282875
 20
-401.0688139979375
 30
0.0
 10
154.3020053026639
 20
-397.0038160668882
 30
0.0
 10
151.4217286542344
 20
-392.9388181358418
 30
0.0
 10
147.3059921401882
 20
-390.9063191703171
 30
0.0
 10
141.9547957605264
 20
-390.9063191703171
 30
0.0
  0
HATCH
  5
4B
330
45
100
AcDbEntity
  8
Layer 1
 62
   250
420
  2235935
100
AcDbHatch
 10
0.0
 20
0.0
 30
0.0
210
0.0
220
0.0
230
1.0
  2
SOLID
 70
     1
 71
     0
 91
        2
 92
        1
 93
        1
 72
     4
 94
        3
 73
     0
 74
     1
 95
       53
 96
       49
 40
0.0
 40
0.0
 40
0.0
 40
0.0
 40
1.0
 40
1.0
 40
1.0
 40
2.0
 40
2.0
 40
2.0
 40
3.0
 40
3.0
 40
3.0
 40
4.0
 40
4.0
 40
4.0
 40
5.0
 40
5.0
 40
5.0
 40
6.0
 40
6.0
 40
6.0
 40
7.0
 40
7.0
 40
7.0
 40
8.0
 40
8.0
 40
8.0
 40
9.0
 40
9.0
 40
9.0
 40
10.0
 40
10.0
 40
10.0
 40
11.0
 40
11.0
 40
11.0
 40
12.0
 40
12.0
 40
12.0
 40
13.0
 40
13.0
 40
13.0
 40
14.0
 40
14.0
 40
14.0
 40
15.0
 40
15.0
 40
15.0
 40
16.0
 40
16.0
 40
16.0
 40
16.0
 10
142.5641513641021
 20
-453.0
 10
138.2961991010625
 20
-453.0
 10
134.3154370699431
 20
-452.1517297094924
 10
130.6233430935481
 20
-450.4591299892945
 10
126.9297712943489
 20
-448.7665302690948
 10
123.728807097069
 20
-446.3094035507147
 10
121.0199578941083
 20
-443.0907054797663
 10
118.3091382607399
 20
-439.8739778392264
 10
116.1924033952873
 20
-435.9262205174346
 10
114.6682754749454
 20
-431.2513743752097
 10
113.1436549470009
 20
-426.576528232983
 10
112.3815909868299
 20
-421.2918338795807
 10
112.3815909868299
 20
-415.3982765302026
 10
112.3815909868299
 20
-409.639693663752
 10
113.1264136809341
 20
-404.4397278178803
 10
114.6175368919476
 20
-399.7983789925856
 10
116.1066896725533
 20
-395.1585079900951
 10
118.1741637778132
 20
-391.2284845419736
 10
120.8165109545153
 20
-388.0097864710251
 10
123.4588581312164
 20
-384.7930588304835
 10
126.5741086057624
 20
-382.3191834536392
 10
130.1662032389668
 20
-380.5911159861016
 10
133.7563274417635
 20
-378.8635411261666
 10
137.686350889885
 20
-378.0
 10
141.9547957605264
 20
-378.0
 10
146.2227480235651
 20
-378.0
 10
150.169027522551
 20
-378.8635411261666
 10
153.7941268650839
 20
-380.5911159861016
 10
157.4177483848107
 20
-382.3191834536392
 10
160.5522105558312
 20
-384.7930588304835
 10
163.1945577325332
 20
-388.0097864710251
 10
165.8364123016327
 20
-391.2284845419736
 10
167.8851673180197
 20
-395.1585079900951
 10
169.3427932121031
 20
-399.7983789925856
 10
170.7989412833795
 20
-404.4397278178803
 10
171.5275079266203
 20
-409.639693663752
 10
171.5275079266203
 20
-415.3982765302026
 10
171.5275079266203
 20
-421.2258244609238
 10
170.8161825494471
 20
-426.4592876237275
 10
169.3935317951009
 20
-431.0986660186136
 10
167.9708810407537
 20
-435.7410000591135
 10
165.9713867845585
 20
-439.6867869504968
 10
163.3975120645246
 20
-442.9389823383754
 10
160.8221595216837
 20
-446.1901925110506
 10
157.7576476301365
 20
-448.6808165463608
 10
154.2005281366683
 20
-450.4078987986941
 10
150.6434086432
 20
-452.1359662662308
 10
146.764616385678
 20
-453.0
 10
142.5641513641021
 20
-453.0
 97
        0
 97
        0
 92
        1
 93
        1
 72
     4
 94
        3
 73
     0
 74
     1
 95
       41
 96
       37
 40
0.0
 40
0.0
 40
0.0
 40
0.0
 40
1.0
 40
1.0
 40
1.0
 40
2.0
 40
2.0
 40
2.0
 40
3.0
 40
3.0
 40
3.0
 40
4.0
 40
4.0
 40
4.0
 40
5.0
 40
5.0
 40
5.0
 40
6.0
 40
6.0
 40
6.0
 40
7.0
 40
7.0
 40
7.0
 40
8.0
 40
8.0
 40
8.0
 40
9.0
 40
9.0
 40
9.0
 40
10.0
 40
10.0
 40
10.0
 40
11.0
 40
11.0
 40
11.0
 40
12.0
 40
12.0
 40
12.0
 40
12.0
 10
141.9547957605264
 20
-390.9063191703171
 10
137.0765026787076
 20
-390.9063191703171
 10
133.0784993815205
 20
-392.9388181358418
 10
129.9627562993728
 20
-397.0038160668882
 10
126.8460280020217
 20
-401.0688139979375
 10
125.2879101571471
 20
-407.2012860342456
 10
125.2879101571471
 20
-415.3982765302026
 10
125.2879101571471
 20
-419.4632744612518
 10
125.7278087456625
 20
-423.0376352207859
 10
126.6090837454985
 20
-426.1193883784017
 10
127.4888809225286
 20
-429.2031119664243
 10
128.6750800279533
 20
-431.7597454203915
 10
130.1662032389668
 20
-433.7922443859152
 10
131.6553560195716
 20
-435.8247433514389
 10
133.4179060192437
 20
-437.3488712717808
 10
135.4504049847674
 20
-438.3656133621462
 10
137.482903950292
 20
-439.3813702373063
 10
139.6503773987415
 20
-439.8897412824881
 10
141.9547957605264
 20
-439.8897412824881
 10
144.3252235409673
 20
-439.8897412824881
 10
146.5276721291539
 20
-439.3813702373063
 10
148.5601710946785
 20
-438.3656133621462
 10
150.5926700602022
 20
-437.3488712717808
 10
152.3537422370682
 20
-435.8247433514389
 10
153.8448654480817
 20
-433.7922443859152
 10
155.3345108362892
 20
-431.7597454203915
 10
156.5029760680445
 20
-429.2031119664243
 10
157.3507537509495
 20
-426.1193883784017
 10
158.1970536110493
 20
-423.0376352207859
 10
158.6211887563031
 20
-419.4632744612518
 10
158.6211887563031
 20
-415.3982765302026
 10
158.6211887563031
 20
-407.2012860342456
 10
157.1808041282875
 20
-401.0688139979375
 10
154.3020053026639
 20
-397.0038160668882
 10
151.4217286542344
 20
-392.9388181358418
 10
147.3059921401882
 20
-390.9063191703171
 10
141.9547957605264
 20
-390.9063191703171
 97
        0
 97
        0
 75
     2
 76
     1
 98
        0
  0
POLYLINE
  5
4C
330
45
100
AcDbEntity
  8
Layer 1
370
     0
100
AcDb2dPolyline
 66
     1
 10
0.0
 20
0.0
 30
0.0
  0
VERTEX
  5
4D
330
4C
100
AcDbEntity
  8
Layer 1
370
     0
100
AcDbVertex
100
AcDb2dVertex
 10
195.7140485733153
 20
-403.8121457330326
 30
0.0
  0
VERTEX
  5
4E
330
4C
100
AcDbEntity
  8
Layer 1
370
     0
100
AcDbVertex
100
AcDb2dVertex
 10
195.7140485733153
 20
-451.9832579096364
 30
0.0
  0
VERTEX
  5
4F
330
4C
100
AcDbEntity
  8
Layer 1
370
     0
100
AcDbVertex
100
AcDb2dVertex
 10
182.7057596294007
 20
-451.9832579096364
 30
0.0
  0
VERTEX
  5
50
330
4C
100
AcDbEntity
  8
Layer 1
370
     0
100
AcDbVertex
100
AcDb2dVertex
 10
182.7057596294007
 20
-379.0162494827619
 30
0.0
  0
VERTEX
  5
51
330
4C
100
AcDbEntity
  8
Layer 1
370
     0
100
AcDbVertex
100
AcDb2dVertex
 10
197.7465475388399
 20
-379.0162494827619
 30
0.0
  0
VERTEX
  5
52
330
4C
100
AcDbEntity
  8
Layer 1
370
     0
100
AcDbVertex
100
AcDb2dVertex
 10
221.2217628083617
 20
-425.0524003126411
 30
0.0
  0
VERTEX
  5
53
330
4C
100
AcDbEntity
  8
Layer 1
370
     0
100
AcDbVertex
100
AcDb2dVertex
 10
221.2217628083617
 20
-379.0162494827619
 30
0.0
  0
VERTEX
  5
54
330
4C
100
AcDbEntity
  8
Layer 1
370
     0
100
AcDbVertex
100
AcDb2dVertex
 10
234.2300517522763
 20
-379.0162494827619
 30
0.0
  0
VERTEX
  5
55
330
4C
100
AcDbEntity
  8
Layer 1
370
     0
100
AcDbVertex
100
AcDb2dVertex
 10
234.2300517522763
 20
-451.9832579096364
 30
0.0
  0
VERTEX
  5
56
330
4C
100
AcDbEntity
  8
Layer 1
370
     0
100
AcDbVertex
100
AcDb2dVertex
 10
220.2055133255999
 20
-451.9832579096364
 30
0.0
  0
VERTEX
  5
57
330
4C
100
AcDbEntity
  8
Layer 1
370
     0
100
AcDbVertex
100
AcDb2dVertex
 10
195.7140485733153
 20
-403.8121457330326
 30
0.0
  0
SEQEND
  5
58
330
4C
100
AcDbEntity
  8
Layer 1
370
     0
  0
HATCH
  5
59
330
45
100
AcDbEntity
  8
Layer 1
 62
   250
420
  2235935
100
AcDbHatch
 10
0.0
 20
0.0
 30
0.0
210
0.0
220
0.0
230
1.0
  2
SOLID
 70
     1
 71
     0
 91
        1
 92
        1
 93
       10
 72
     1
 10
195.7140485733153
 20
-403.8121457330326
 11
195.7140485733153
 21
-451.9832579096364
 72
     1
 10
195.7140485733153
 20
-451.9832579096364
 11
182.7057596294007
 21
-451.9832579096364
 72
     1
 10
182.7057596294007
 20
-451.9832579096364
 11
182.7057596294007
 21
-379.0162494827619
 72
     1
 10
182.7057596294007
 20
-379.0162494827619
 11
197.7465475388399
 21
-379.0162494827619
 72
     1
 10
197.7465475388399
 20
-379.0162494827619
 11
221.2217628083617
 21
-425.0524003126411
 72
     1
 10
221.2217628083617
 20
-425.0524003126411
 11
221.2217628083617
 21
-379.0162494827619
 72
     1
 10
221.2217628083617
 20
-379.0162494827619
 11
234.2300517522763
 21
-379.0162494827619
 72
     1
 10
234.2300517522763
 20
-379.0162494827619
 11
234.2300517522763
 21
-451.9832579096364
 72
     1
 10
234.2300517522763
 20
-451.9832579096364
 11
220.2055133255999
 21
-451.9832579096364
 72
     1
 10
220.2055133255999
 20
-451.9832579096364
 11
195.7140485733153
 21
-403.8121457330326
 97
        0
 75
     2
 76
     1
 98
        0
  0
POLYLINE
  5
5A
330
45
100
AcDbEntity
  8
Layer 1
370
     0
100
AcDb2dPolyline
 66
     1
 10
0.0
 20
0.0
 30
0.0
  0
VERTEX
  5
5B
330
5A
100
AcDbEntity
  8
Layer 1
370
     0
100
AcDbVertex
100
AcDb2dVertex
 10
309.6349752010556
 20
-379.0162494827619
 30
0.0
  0
VERTEX
  5
5C
330
5A
100
AcDbEntity
  8
Layer 1
370
     0
100
AcDbVertex
100
AcDb2dVertex
 10
331.1786760634477
 20
-451.9832579096364
 30
0.0
  0
VERTEX
  5
5D
330
5A
100
AcDbEntity
  8
Layer 1
370
     0
100
AcDbVertex
100
AcDb2dVertex
 10
317.0536456859772
 20
-451.9832579096364
 30
0.0
  0
VERTEX
  5
5E
330
5A
100
AcDbEntity
  8
Layer 1
370
     0
100
AcDbVertex
100
AcDb2dVertex
 10
313.1916020869212
 20
-438.3656133621462
 30
0.0
  0
VERTEX
  5
5F
330
5A
100
AcDbEntity
  8
Layer 1
370
     0
100
AcDbVertex
100
AcDb2dVertex
 10
289.3094929382132
 20
-438.3656133621462
 30
0.0
  0
VERTEX
  5
60
330
5A
100
AcDbEntity
  8
Layer 1
370
     0
100
AcDbVertex
100
AcDb2dVertex
 10
285.5494191127536
 20
-451.9832579096364
 30
0.0
  0
VERTEX
  5
61
330
5A
100
AcDbEntity
  8
Layer 1
370
     0
100
AcDbVertex
100
AcDb2dVertex
 10
271.4234035200807
 20
-451.9832579096364
 30
0.0
  0
VERTEX
  5
62
330
5A
100
AcDbEntity
  8
Layer 1
370
     0
100
AcDbVertex
100
AcDb2dVertex
 10
292.9680895976762
 20
-379.0162494827619
 30
0.0
  0
VERTEX
  5
63
330
5A
100
AcDbEntity
  8
Layer 1
370
     0
100
AcDbVertex
100
AcDb2dVertex
 10
309.6349752010556
 20
-379.0162494827619
 30
0.0
  0
SEQEND
  5
64
330
5A
100
AcDbEntity
  8
Layer 1
370
     0
  0
POLYLINE
  5
65
330
45
100
AcDbEntity
  8
Layer 1
370
     0
100
AcDb2dPolyline
 66
     1
 10
0.0
 20
0.0
 30
0.0
  0
VERTEX
  5
66
330
65
100
AcDbEntity
  8
Layer 1
370
     0
100
AcDbVertex
100
AcDb2dVertex
 10
292.7646426580832
 20
-425.4583089766238
 30
0.0
  0
VERTEX
  5
67
330
65
100
AcDbEntity
  8
Layer 1
370
     0
100
AcDbVertex
100
AcDb2dVertex
 10
309.6349752010556
 20
-425.4583089766238
 30
0.0
  0
VERTEX
  5
68
330
65
100
AcDbEntity
  8
Layer 1
370
     0
100
AcDbVertex
100
AcDb2dVertex
 10
301.0980854597728
 20
-395.8860894181316
 30
0.0
  0
VERTEX
  5
69
330
65
100
AcDbEntity
  8
Layer 1
370
     0
100
AcDbVertex
100
AcDb2dVertex
 10
292.7646426580832
 20
-425.4583089766238
 30
0.0
  0
SEQEND
  5
6A
330
65
100
AcDbEntity
  8
Layer 1
370
     0
  0
HATCH
  5
6B
330
45
100
AcDbEntity
  8
Layer 1
 62
   250
420
  2235935
100
AcDbHatch
 10
0.0
 20
0.0
 30
0.0
210
0.0
220
0.0
230
1.0
  2
SOLID
 70
     1
 71
     0
 91
        2
 92
        1
 93
        8
 72
     1
 10
309.6349752010556
 20
-379.0162494827619
 11
331.1786760634477
 21
-451.9832579096364
 72
     1
 10
331.1786760634477
 20
-451.9832579096364
 11
317.0536456859772
 21
-451.9832579096364
 72
     1
 10
317.0536456859772
 20
-451.9832579096364
 11
313.1916020869212
 21
-438.3656133621462
 72
     1
 10
313.1916020869212
 20
-438.3656133621462
 11
289.3094929382132
 21
-438.3656133621462
 72
     1
 10
289.3094929382132
 20
-438.3656133621462
 11
285.5494191127536
 21
-451.9832579096364
 72
     1
 10
285.5494191127536
 20
-451.9832579096364
 11
271.4234035200807
 21
-451.9832579096364
 72
     1
 10
271.4234035200807
 20
-451.9832579096364
 11
292.9680895976762
 21
-379.0162494827619
 72
     1
 10
292.9680895976762
 20
-379.0162494827619
 11
309.6349752010556
 21
-379.0162494827619
 97
        0
 92
        1
 93
        3
 72
     1
 10
292.7646426580832
 20
-425.4583089766238
 11
309.6349752010556
 21
-425.4583089766238
 72
     1
 10
309.6349752010556
 20
-425.4583089766238
 11
301.0980854597728
 21
-395.8860894181316
 72
     1
 10
301.0980854597728
 20
-395.8860894181316
 11
292.7646426580832
 21
-425.4583089766238
 97
        0
 75
     2
 76
     1
 98
        0
  0
POLYLINE
  5
6C
330
45
100
AcDbEntity
  8
Layer 1
370
     0
100
AcDb2dPolyline
 66
     1
 10
0.0
 20
0.0
 30
0.0
  0
VERTEX
  5
6D
330
6C
100
AcDbEntity
  8
Layer 1
370
     0
100
AcDbVertex
100
AcDb2dVertex
 10
338.291929835179
 20
-379.0162494827619
 30
0.0
  0
VERTEX
  5
6E
330
6C
100
AcDbEntity
  8
Layer 1
370
     0
100
AcDbVertex
100
AcDb2dVertex
 10
351.4012033374875
 20
-379.0162494827619
 30
0.0
  0
VERTEX
  5
6F
330
6C
100
AcDbEntity
  8
Layer 1
370
     0
100
AcDbVertex
100
AcDb2dVertex
 10
351.4012033374875
 20
-451.9832579096364
 30
0.0
  0
VERTEX
  5
70
330
6C
100
AcDbEntity
  8
Layer 1
370
     0
100
AcDbVertex
100
AcDb2dVertex
 10
338.291929835179
 20
-451.9832579096364
 30
0.0
  0
VERTEX
  5
71
330
6C
100
AcDbEntity
  8
Layer 1
370
     0
100
AcDbVertex
100
AcDb2dVertex
 10
338.291929835179
 20
-379.0162494827619
 30
0.0
  0
SEQEND
  5
72
330
6C
100
AcDbEntity
  8
Layer 1
370
     0
  0
HATCH
  5
73
330
45
100
AcDbEntity
  8
Layer 1
 62
   250
420
  2235935
100
AcDbHatch
 10
0.0
 20
0.0
 30
0.0
210
0.0
220
0.0
230
1.0
  2
SOLID
 70
     1
 71
     0
 91
        1
 92
        1
 93
        4
 72
     1
 10
338.291929835179
 20
-379.0162494827619
 11
351.4012033374875
 21
-379.0162494827619
 72
     1
 10
351.4012033374875
 20
-379.0162494827619
 11
351.4012033374875
 21
-451.9832579096364
 72
     1
 10
351.4012033374875
 20
-451.9832579096364
 11
338.291929835179
 21
-451.9832579096364
 72
     1
 10
338.291929835179
 20
-451.9832579096364
 11
338.291929835179
 21
-379.0162494827619
 97
        0
 75
     2
 76
     1
 98
        0
  0
SPLINE
  5
74
330
45
100
AcDbEntity
  8
Layer 1
370
     0
100
AcDbSpline
210
0.0
220
0.0
230
1.0
 70
    11
 71
     3
 72
    44
 73
    40
 74
     0
 42
0.0000000001
 43
0.0000000001
 12
1.0
 22
0.0
 32
0.0
 13
1.0
 23
0.0
 33
0.0
 40
0.0
 40
0.0
 40
0.0
 40
0.0
 40
1.0
 40
1.0
 40
1.0
 40
2.0
 40
2.0
 40
2.0
 40
3.0
 40
3.0
 40
3.0
 40
4.0
 40
4.0
 40
4.0
 40
5.0
 40
5.0
 40
5.0
 40
6.0
 40
6.0
 40
6.0
 40
7.0
 40
7.0
 40
7.0
 40
8.0
 40
8.0
 40
8.0
 40
9.0
 40
9.0
 40
9.0
 40
10.0
 40
10.0
 40
10.0
 40
11.0
 40
11.0
 40
11.0
 40
12.0
 40
12.0
 40
12.0
 40
13.0
 40
13.0
 40
13.0
 40
13.0
 10
387.3763365057421
 20
-424.2395977694723
 30
0.0
 10
387.3763365057421
 20
-424.2395977694723
 30
0.0
 10
377.1113792969227
 20
-424.2395977694723
 30
0.0
 10
377.1113792969227
 20
-424.2395977694723
 30
0.0
 10
377.1113792969227
 20
-424.2395977694723
 30
0.0
 10
377.1113792969227
 20
-451.9832579096364
 30
0.0
 10
377.1113792969227
 20
-451.9832579096364
 30
0.0
 10
377.1113792969227
 20
-451.9832579096364
 30
0.0
 10
364.0021057946142
 20
-451.9832579096364
 30
0.0
 10
364.0021057946142
 20
-451.9832579096364
 30
0.0
 10
364.0021057946142
 20
-451.9832579096364
 30
0.0
 10
364.0021057946142
 20
-379.0162494827619
 30
0.0
 10
364.0021057946142
 20
-379.0162494827619
 30
0.0
 10
364.0021057946142
 20
-379.0162494827619
 30
0.0
 10
391.2373948895965
 20
-379.0162494827619
 30
0.0
 10
391.2373948895965
 20
-379.0162494827619
 30
0.0
 10
394.5565849113354
 20
-379.0162494827619
 30
0.0
 10
397.5890773087594
 20
-379.5241279203419
 30
0.0
 10
400.3329016514563
 20
-380.5403774031038
 30
0.0
 10
403.0767259941531
 20
-381.5566268858665
 30
0.0
 10
405.414641672869
 20
-383.0305088308123
 30
0.0
 10
407.3456634723971
 20
-384.9610380227386
 30
0.0
 10
409.2766852719251
 20
-386.8920598222676
 30
0.0
 10
410.7653454449282
 20
-389.2644580331162
 30
0.0
 10
411.8165700674272
 20
-392.0747844020725
 30
0.0
 10
412.8668094747227
 20
-394.8870812014375
 30
0.0
 10
413.3919291783695
 20
-398.055040689389
 30
0.0
 10
413.3919291783695
 20
-401.5766924355175
 30
0.0
 10
413.3919291783695
 20
-411.8761321764723
 30
0.0
 10
409.123976915329
 20
-418.8879087822079
 30
0.0
 10
400.5870871740481
 20
-422.6130074679313
 30
0.0
 10
400.5870871740481
 20
-422.6130074679313
 30
0.0
 10
414.4086712687331
 20
-451.9832579096364
 30
0.0
 10
414.4086712687331
 20
-451.9832579096364
 30
0.0
 10
414.4086712687331
 20
-451.9832579096364
 30
0.0
 10
400.282655676061
 20
-451.9832579096364
 30
0.0
 10
400.282655676061
 20
-451.9832579096364
 30
0.0
 10
400.282655676061
 20
-451.9832579096364
 30
0.0
 10
387.3763365057421
 20
-424.2395977694723
 30
0.0
 10
387.3763365057421
 20
-424.2395977694723
 30
0.0
  0
SPLINE
  5
75
330
45
100
AcDbEntity
  8
Layer 1
370
     0
100
AcDbSpline
210
0.0
220
0.0
230
1.0
 70
    11
 71
     3
 72
    20
 73
    16
 74
     0
 42
0.0000000001
 43
0.0000000001
 12
1.0
 22
0.0
 32
0.0
 13
1.0
 23
0.0
 33
0.0
 40
0.0
 40
0.0
 40
0.0
 40
0.0
 40
1.0
 40
1.0
 40
1.0
 40
2.0
 40
2.0
 40
2.0
 40
3.0
 40
3.0
 40
3.0
 40
4.0
 40
4.0
 40
4.0
 40
5.0
 40
5.0
 40
5.0
 40
5.0
 10
377.1113792969227
 20
-391.9225686530799
 30
0.0
 10
377.1113792969227
 20
-391.9225686530799
 30
0.0
 10
377.1113792969227
 20
-411.2308162179561
 30
0.0
 10
377.1113792969227
 20
-411.2308162179561
 30
0.0
 10
377.1113792969227
 20
-411.2308162179561
 30
0.0
 10
390.9329633916095
 20
-411.2308162179561
 30
0.0
 10
390.9329633916095
 20
-411.2308162179561
 30
0.0
 10
397.3004092540341
 20
-411.2308162179561
 30
0.0
 10
400.4856100080524
 20
-408.1825603772722
 30
0.0
 10
400.4856100080524
 20
-402.0850634806993
 30
0.0
 10
400.4856100080524
 20
-395.3112163466903
 30
0.0
 10
397.3004092540341
 20
-391.9225686530799
 30
0.0
 10
390.9329633916095
 20
-391.9225686530799
 30
0.0
 10
390.9329633916095
 20
-391.9225686530799
 30
0.0
 10
377.1113792969227
 20
-391.9225686530799
 30
0.0
 10
377.1113792969227
 20
-391.9225686530799
 30
0.0
  0
HATCH
  5
76
330
45
100
AcDbEntity
  8
Layer 1
 62
   250
420
  2235935
100
AcDbHatch
 10
0.0
 20
0.0
 30
0.0
210
0.0
220
0.0
230
1.0
  2
SOLID
 70
     1
 71
     0
 91
        2
 92
        1
 93
        1
 72
     4
 94
        3
 73
     0
 74
     1
 95
       44
 96
       40
 40
0.0
 40
0.0
 40
0.0
 40
0.0
 40
1.0
 40
1.0
 40
1.0
 40
2.0
 40
2.0
 40
2.0
 40
3.0
 40
3.0
 40
3.0
 40
4.0
 40
4.0
 40
4.0
 40
5.0
 40
5.0
 40
5.0
 40
6.0
 40
6.0
 40
6.0
 40
7.0
 40
7.0
 40
7.0
 40
8.0
 40
8.0
 40
8.0
 40
9.0
 40
9.0
 40
9.0
 40
10.0
 40
10.0
 40
10.0
 40
11.0
 40
11.0
 40
11.0
 40
12.0
 40
12.0
 40
12.0
 40
13.0
 40
13.0
 40
13.0
 40
13.0
 10
387.3763365057421
 20
-424.2395977694723
 10
387.3763365057421
 20
-424.2395977694723
 10
377.1113792969227
 20
-424.2395977694723
 10
377.1113792969227
 20
-424.2395977694723
 10
377.1113792969227
 20
-424.2395977694723
 10
377.1113792969227
 20
-451.9832579096364
 10
377.1113792969227
 20
-451.9832579096364
 10
377.1113792969227
 20
-451.9832579096364
 10
364.0021057946142
 20
-451.9832579096364
 10
364.0021057946142
 20
-451.9832579096364
 10
364.0021057946142
 20
-451.9832579096364
 10
364.0021057946142
 20
-379.0162494827619
 10
364.0021057946142
 20
-379.0162494827619
 10
364.0021057946142
 20
-379.0162494827619
 10
391.2373948895965
 20
-379.0162494827619
 10
391.2373948895965
 20
-379.0162494827619
 10
394.5565849113354
 20
-379.0162494827619
 10
397.5890773087594
 20
-379.5241279203419
 10
400.3329016514563
 20
-380.5403774031038
 10
403.0767259941531
 20
-381.5566268858665
 10
405.414641672869
 20
-383.0305088308123
 10
407.3456634723971
 20
-384.9610380227386
 10
409.2766852719251
 20
-386.8920598222676
 10
410.7653454449282
 20
-389.2644580331162
 10
411.8165700674272
 20
-392.0747844020725
 10
412.8668094747227
 20
-394.8870812014375
 10
413.3919291783695
 20
-398.055040689389
 10
413.3919291783695
 20
-401.5766924355175
 10
413.3919291783695
 20
-411.8761321764723
 10
409.123976915329
 20
-418.8879087822079
 10
400.5870871740481
 20
-422.6130074679313
 10
400.5870871740481
 20
-422.6130074679313
 10
414.4086712687331
 20
-451.9832579096364
 10
414.4086712687331
 20
-451.9832579096364
 10
414.4086712687331
 20
-451.9832579096364
 10
400.282655676061
 20
-451.9832579096364
 10
400.282655676061
 20
-451.9832579096364
 10
400.282655676061
 20
-451.9832579096364
 10
387.3763365057421
 20
-424.2395977694723
 10
387.3763365057421
 20
-424.2395977694723
 97
        0
 97
        0
 92
        1
 93
        1
 72
     4
 94
        3
 73
     0
 74
     1
 95
       20
 96
       16
 40
0.0
 40
0.0
 40
0.0
 40
0.0
 40
1.0
 40
1.0
 40
1.0
 40
2.0
 40
2.0
 40
2.0
 40
3.0
 40
3.0
 40
3.0
 40
4.0
 40
4.0
 40
4.0
 40
5.0
 40
5.0
 40
5.0
 40
5.0
 10
377.1113792969227
 20
-391.9225686530799
 10
377.1113792969227
 20
-391.9225686530799
 10
377.1113792969227
 20
-411.2308162179561
 10
377.1113792969227
 20
-411.2308162179561
 10
377.1113792969227
 20
-411.2308162179561
 10
390.9329633916095
 20
-411.2308162179561
 10
390.9329633916095
 20
-411.2308162179561
 10
397.3004092540341
 20
-411.2308162179561
 10
400.4856100080524
 20
-408.1825603772722
 10
400.4856100080524
 20
-402.0850634806993
 10
400.4856100080524
 20
-395.3112163466903
 10
397.3004092540341
 20
-391.9225686530799
 10
390.9329633916095
 20
-391.9225686530799
 10
390.9329633916095
 20
-391.9225686530799
 10
377.1113792969227
 20
-391.9225686530799
 10
377.1113792969227
 20
-391.9225686530799
 97
        0
 97
        0
 75
     2
 76
     1
 98
        0
  0
ENDBLK
  5
48
330
45
100
AcDbEntity
  8
0
100
AcDbBlockEnd
  0
BLOCK
  5
79
330
77
100
AcDbEntity
  8
0
100
AcDbBlockBegin
  2
block 4
 70
     0
 10
0.0
 20
0.0
 30
0.0
  3
block 4
  1

  0
SPLINE
  5
7B
330
77
100
AcDbEntity
  8
Layer 1
370
     0
100
AcDbSpline
210
0.0
220
0.0
230
1.0
 70
    11
 71
     3
 72
    26
 73
    22
 74
     0
 42
0.0000000001
 43
0.0000000001
 12
1.0
 22
0.0
 32
0.0
 13
1.0
 23
0.0
 33
0.0
 40
0.0
 40
0.0
 40
0.0
 40
0.0
 40
1.0
 40
1.0
 40
1.0
 40
2.0
 40
2.0
 40
2.0
 40
3.0
 40
3.0
 40
3.0
 40
4.0
 40
4.0
 40
4.0
 40
5.0
 40
5.0
 40
5.0
 40
6.0
 40
6.0
 40
6.0
 40
7.0
 40
7.0
 40
7.0
 40
7.0
 10
445.8820732519926
 20
-402.39431466325
 30
0.0
 10
445.881842785082
 20
-398.2003931192357
 30
0.0
 10
445.8342321631662
 20
-394.0058032211909
 30
0.0
 10
445.8926017485355
 20
-389.812692152469
 30
0.0
 10
445.9887141310737
 20
-382.9081648081883
 30
0.0
 10
450.8053150061096
 20
-377.9551160007341
 30
0.0
 10
457.2987930980307
 20
-378.0003067201251
 30
0.0
 10
463.6736690783855
 20
-378.0446754408786
 30
0.0
 10
468.4568176818393
 20
-382.9839077572433
 30
0.0
 10
468.5096829492413
 20
-389.7462946365013
 30
0.0
 10
468.5752431021137
 20
-398.1336268562154
 30
0.0
 10
468.573360955701
 20
-406.5222228028069
 30
0.0
 10
468.5103820321874
 20
-414.9095972747891
 30
0.0
 10
468.4591876498707
 20
-421.7266163343993
 30
0.0
 10
463.7430434585731
 20
-426.6575172720713
 30
0.0
 10
457.367910123503
 20
-426.7241452549442
 30
0.0
 10
450.823272219297
 20
-426.7925478330053
 30
0.0
 10
445.9996152157819
 20
-421.8915077242818
 30
0.0
 10
445.8940921012036
 20
-414.9759102862208
 30
0.0
 10
445.8301144877623
 20
-410.7829643854511
 30
0.0
 10
445.8822998777814
 20
-406.5882362072643
 30
0.0
 10
445.8820732519926
 20
-402.39431466325
 30
0.0
  0
HATCH
  5
7C
330
77
100
AcDbEntity
  8
Layer 1
 62
     7
420
 16777215
100
AcDbHatch
 10
0.0
 20
0.0
 30
0.0
210
0.0
220
0.0
230
1.0
  2
SOLID
 70
     1
 71
     0
 91
        1
 92
        1
 93
        1
 72
     4
 94
        3
 73
     0
 74
     1
 95
       26
 96
       22
 40
0.0
 40
0.0
 40
0.0
 40
0.0
 40
1.0
 40
1.0
 40
1.0
 40
2.0
 40
2.0
 40
2.0
 40
3.0
 40
3.0
 40
3.0
 40
4.0
 40
4.0
 40
4.0
 40
5.0
 40
5.0
 40
5.0
 40
6.0
 40
6.0
 40
6.0
 40
7.0
 40
7.0
 40
7.0
 40
7.0
 10
445.8820732519926
 20
-402.39431466325
 10
445.881842785082
 20
-398.2003931192357
 10
445.8342321631662
 20
-394.0058032211909
 10
445.8926017485355
 20
-389.812692152469
 10
445.9887141310737
 20
-382.9081648081883
 10
450.8053150061096
 20
-377.9551160007341
 10
457.2987930980307
 20
-378.0003067201251
 10
463.6736690783855
 20
-378.0446754408786
 10
468.4568176818393
 20
-382.9839077572433
 10
468.5096829492413
 20
-389.7462946365013
 10
468.5752431021137
 20
-398.1336268562154
 10
468.573360955701
 20
-406.5222228028069
 10
468.5103820321874
 20
-414.9095972747891
 10
468.4591876498707
 20
-421.7266163343993
 10
463.7430434585731
 20
-426.6575172720713
 10
457.367910123503
 20
-426.7241452549442
 10
450.823272219297
 20
-426.7925478330053
 10
445.9996152157819
 20
-421.8915077242818
 10
445.8940921012036
 20
-414.9759102862208
 10
445.8301144877623
 20
-410.7829643854511
 10
445.8822998777814
 20
-406.5882362072643
 10
445.8820732519926
 20
-402.39431466325
 97
        0
 97
        0
 75
     2
 76
     1
 98
        0
  0
SPLINE
  5
7D
330
77
100
AcDbEntity
  8
Layer 1
370
     0
100
AcDbSpline
210
0.0
220
0.0
230
1.0
 70
    11
 71
     3
 72
    65
 73
    61
 74
     0
 42
0.0000000001
 43
0.0000000001
 12
1.0
 22
0.0
 32
0.0
 13
1.0
 23
0.0
 33
0.0
 40
0.0
 40
0.0
 40
0.0
 40
0.0
 40
1.0
 40
1.0
 40
1.0
 40
2.0
 40
2.0
 40
2.0
 40
3.0
 40
3.0
 40
3.0
 40
4.0
 40
4.0
 40
4.0
 40
5.0
 40
5.0
 40
5.0
 40
6.0
 40
6.0
 40
6.0
 40
7.0
 40
7.0
 40
7.0
 40
8.0
 40
8.0
 40
8.0
 40
9.0
 40
9.0
 40
9.0
 40
10.0
 40
10.0
 40
10.0
 40
11.0
 40
11.0
 40
11.0
 40
12.0
 40
12.0
 40
12.0
 40
13.0
 40
13.0
 40
13.0
 40
14.0
 40
14.0
 40
14.0
 40
15.0
 40
15.0
 40
15.0
 40
16.0
 40
16.0
 40
16.0
 40
17.0
 40
17.0
 40
17.0
 40
18.0
 40
18.0
 40
18.0
 40
19.0
 40
19.0
 40
19.0
 40
20.0
 40
20.0
 40
20.0
 40
20.0
 10
447.873791310818
 20
-453.0
 30
0.0
 10
447.873791310818
 20
-450.5482315832214
 30
0.0
 10
447.873791310818
 20
-448.2924675888007
 30
0.0
 10
447.873791310818
 20
-445.7190587383939
 30
0.0
 10
449.6538063097923
 20
-445.7190587383939
 30
0.0
 10
451.3610360183575
 20
-445.7190587383939
 30
0.0
 10
453.22847479747
 20
-445.7190587383939
 30
0.0
 10
453.22847479747
 20
-443.4314979930095
 30
0.0
 10
453.22847479747
 20
-441.4561814957451
 30
0.0
 10
453.22847479747
 20
-439.2674910535552
 30
0.0
 10
452.7184515318095
 20
-439.0955396940808
 30
0.0
 10
452.116264549948
 20
-438.8642891993823
 30
0.0
 10
451.4983213138712
 20
-438.6883968557995
 30
0.0
 10
441.8886425527926
 20
-435.9530312274637
 30
0.0
 10
435.6007313393147
 20
-428.2106568064701
 30
0.0
 10
434.9690618783552
 20
-418.2061190932636
 30
0.0
 10
434.8212980207936
 20
-415.8657506972049
 30
0.0
 10
434.8542663118733
 20
-413.5071984621645
 30
0.0
 10
434.9317627299788
 20
-411.1612220380302
 30
0.0
 10
435.0162269309167
 20
-408.6043299826451
 30
0.0
 10
436.5235304385842
 20
-407.1066100571934
 30
0.0
 10
438.7900802842651
 20
-407.1292880008677
 30
0.0
 10
441.0329803841505
 20
-407.1517201131683
 30
0.0
 10
442.3498298808172
 20
-408.684586241965
 30
0.0
 10
442.4395736944862
 20
-411.3233708717144
 30
0.0
 10
442.53912003394
 20
-414.2505617891511
 30
0.0
 10
442.3260687426846
 20
-417.2403167896664
 30
0.0
 10
442.853711203401
 20
-420.0909158716058
 30
0.0
 10
444.2308431607653
 20
-427.5309330747987
 30
0.0
 10
451.0812184640781
 20
-432.6118526045993
 30
0.0
 10
458.3651173843245
 20
-431.9406715129553
 30
0.0
 10
466.0259180435114
 20
-431.2347513761579
 30
0.0
 10
471.7901949998941
 20
-425.0354143568002
 30
0.0
 10
471.9434247642694
 20
-417.3065837077193
 30
0.0
 10
471.9866526738351
 20
-415.12594424282
 30
0.0
 10
471.8806148498261
 20
-412.9402882815702
 30
0.0
 10
471.9827424186424
 20
-410.7634822495602
 30
0.0
 10
472.0827112807601
 20
-408.6323470763291
 30
0.0
 10
473.2747322182495
 20
-407.3117947446863
 30
0.0
 10
475.4353748378326
 20
-407.1514128239596
 30
0.0
 10
477.5985756400878
 20
-406.9908542119319
 30
0.0
 10
479.2001285894657
 20
-408.1431196079284
 30
0.0
 10
479.3862843926509
 20
-410.2108763816777
 30
0.0
 10
480.249889987359
 20
-419.8032393957928
 30
0.0
 10
479.0029334214232
 20
-428.8128514705586
 30
0.0
 10
470.489555009035
 20
-434.9595652127718
 30
0.0
 10
467.7588793822651
 20
-436.9311481461391
 30
0.0
 10
464.4467395897118
 20
-438.09739520117
 30
0.0
 10
461.108414915383
 20
-439.7793196433213
 30
0.0
 10
461.108414915383
 20
-441.2723073149391
 30
0.0
 10
461.108414915383
 20
-443.2593084843993
 30
0.0
 10
461.108414915383
 20
-445.5571787827703
 30
0.0
 10
462.8823839991583
 20
-445.5571787827703
 30
0.0
 10
464.5928824966923
 20
-445.5571787827703
 30
0.0
 10
466.4684682809711
 20
-445.5571787827703
 30
0.0
 10
466.4684682809711
 20
-448.1750523818046
 30
0.0
 10
466.4684682809711
 20
-450.4885406542544
 30
0.0
 10
466.4684682809711
 20
-453.0
 30
0.0
 10
460.3698529822923
 20
-453.0
 30
0.0
 10
454.2208960288517
 20
-453.0
 30
0.0
 10
447.873791310818
 20
-453.0
 30
0.0
  0
HATCH
  5
7E
330
77
100
AcDbEntity
  8
Layer 1
 62
     7
420
 16777215
100
AcDbHatch
 10
0.0
 20
0.0
 30
0.0
210
0.0
220
0.0
230
1.0
  2
SOLID
 70
     1
 71
     0
 91
        1
 92
        1
 93
        1
 72
     4
 94
        3
 73
     0
 74
     1
 95
       65
 96
       61
 40
0.0
 40
0.0
 40
0.0
 40
0.0
 40
1.0
 40
1.0
 40
1.0
 40
2.0
 40
2.0
 40
2.0
 40
3.0
 40
3.0
 40
3.0
 40
4.0
 40
4.0
 40
4.0
 40
5.0
 40
5.0
 40
5.0
 40
6.0
 40
6.0
 40
6.0
 40
7.0
 40
7.0
 40
7.0
 40
8.0
 40
8.0
 40
8.0
 40
9.0
 40
9.0
 40
9.0
 40
10.0
 40
10.0
 40
10.0
 40
11.0
 40
11.0
 40
11.0
 40
12.0
 40
12.0
 40
12.0
 40
13.0
 40
13.0
 40
13.0
 40
14.0
 40
14.0
 40
14.0
 40
15.0
 40
15.0
 40
15.0
 40
16.0
 40
16.0
 40
16.0
 40
17.0
 40
17.0
 40
17.0
 40
18.0
 40
18.0
 40
18.0
 40
19.0
 40
19.0
 40
19.0
 40
20.0
 40
20.0
 40
20.0
 40
20.0
 10
447.873791310818
 20
-453.0
 10
447.873791310818
 20
-450.5482315832214
 10
447.873791310818
 20
-448.2924675888007
 10
447.873791310818
 20
-445.7190587383939
 10
449.6538063097923
 20
-445.7190587383939
 10
451.3610360183575
 20
-445.7190587383939
 10
453.22847479747
 20
-445.7190587383939
 10
453.22847479747
 20
-443.4314979930095
 10
453.22847479747
 20
-441.4561814957451
 10
453.22847479747
 20
-439.2674910535552
 10
452.7184515318095
 20
-439.0955396940808
 10
452.116264549948
 20
-438.8642891993823
 10
451.4983213138712
 20
-438.6883968557995
 10
441.8886425527926
 20
-435.9530312274637
 10
435.6007313393147
 20
-428.2106568064701
 10
434.9690618783552
 20
-418.2061190932636
 10
434.8212980207936
 20
-415.8657506972049
 10
434.8542663118733
 20
-413.5071984621645
 10
434.9317627299788
 20
-411.1612220380302
 10
435.0162269309167
 20
-408.6043299826451
 10
436.5235304385842
 20
-407.1066100571934
 10
438.7900802842651
 20
-407.1292880008677
 10
441.0329803841505
 20
-407.1517201131683
 10
442.3498298808172
 20
-408.684586241965
 10
442.4395736944862
 20
-411.3233708717144
 10
442.53912003394
 20
-414.2505617891511
 10
442.3260687426846
 20
-417.2403167896664
 10
442.853711203401
 20
-420.0909158716058
 10
444.2308431607653
 20
-427.5309330747987
 10
451.0812184640781
 20
-432.6118526045993
 10
458.3651173843245
 20
-431.9406715129553
 10
466.0259180435114
 20
-431.2347513761579
 10
471.7901949998941
 20
-425.0354143568002
 10
471.9434247642694
 20
-417.3065837077193
 10
471.9866526738351
 20
-415.12594424282
 10
471.8806148498261
 20
-412.9402882815702
 10
471.9827424186424
 20
-410.7634822495602
 10
472.0827112807601
 20
-408.6323470763291
 10
473.2747322182495
 20
-407.3117947446863
 10
475.4353748378326
 20
-407.1514128239596
 10
477.5985756400878
 20
-406.9908542119319
 10
479.2001285894657
 20
-408.1431196079284
 10
479.3862843926509
 20
-410.2108763816777
 10
480.249889987359
 20
-419.8032393957928
 10
479.0029334214232
 20
-428.8128514705586
 10
470.489555009035
 20
-434.9595652127718
 10
467.7588793822651
 20
-436.9311481461391
 10
464.4467395897118
 20
-438.09739520117
 10
461.108414915383
 20
-439.7793196433213
 10
461.108414915383
 20
-441.2723073149391
 10
461.108414915383
 20
-443.2593084843993
 10
461.108414915383
 20
-445.5571787827703
 10
462.8823839991583
 20
-445.5571787827703
 10
464.5928824966923
 20
-445.5571787827703
 10
466.4684682809711
 20
-445.5571787827703
 10
466.4684682809711
 20
-448.1750523818046
 10
466.4684682809711
 20
-450.4885406542544
 10
466.4684682809711
 20
-453.0
 10
460.3698529822923
 20
-453.0
 10
454.2208960288517
 20
-453.0
 10
447.873791310818
 20
-453.0
 97
        0
 97
        0
 75
     2
 76
     1
 98
        0
  0
ENDBLK
  5
7A
330
77
100
AcDbEntity
  8
0
100
AcDbBlockEnd
  0
ENDSEC
  0
SECTION
  2
ENTITIES
  0
INSERT
  5
42
330
1F
100
AcDbEntity
  8
Layer 1
100
AcDbBlockReference
  2
block 2
 10
0.0
 20
0.0
 30
0.0
  0
POLYLINE
  5
7F
330
1F
100
AcDbEntity
  8
Layer 1
 62
   250
420
  2235935
370
    35
100
AcDb2dPolyline
 66
     1
 10
0.0
 20
0.0
 30
0.0
  0
VERTEX
  5
80
330
7F
100
AcDbEntity
  8
Layer 1
 62
   250
420
  2235935
370
    35
100
AcDbVertex
100
AcDb2dVertex
 10
499.0
 20
-470.5
 30
0.0
  0
VERTEX
  5
81
330
7F
100
AcDbEntity
  8
Layer 1
 62
   250
420
  2235935
370
    35
100
AcDbVertex
100
AcDb2dVertex
 10
93.0
 20
-470.5
 30
0.0
  0
VERTEX
  5
82
330
7F
100
AcDbEntity
  8
Layer 1
 62
   250
420
  2235935
370
    35
100
AcDbVertex
100
AcDb2dVertex
 10
93.0
 20
-360.5
 30
0.0
  0
VERTEX
  5
83
330
7F
100
AcDbEntity
  8
Layer 1
 62
   250
420
  2235935
370
    35
100
AcDbVertex
100
AcDb2dVertex
 10
499.0
 20
-360.5
 30
0.0
  0
VERTEX
  5
84
330
7F
100
AcDbEntity
  8
Layer 1
 62
   250
420
  2235935
370
    35
100
AcDbVertex
100
AcDb2dVertex
 10
499.0
 20
-470.5
 30
0.0
  0
SEQEND
  5
85
330
7F
100
AcDbEntity
  8
Layer 1
 62
   250
420
  2235935
370
    35
  0
ENDSEC
  0
SECTION
  2
OBJECTS
  0
DICTIONARY
  5
C
330
0
100
AcDbDictionary
281
     1
  3
ACAD_GROUP
350
D
  3
ACAD_LAYOUT
350
1A
  3
ACAD_MATERIAL
350
3B
  3
ACAD_MLEADERSTYLE
350
87
  3
ACAD_MLINESTYLE
350
17
  3
ACAD_PLOTSETTINGS
350
19
  3
ACAD_PLOTSTYLENAME
350
E
  3
ACAD_TABLESTYLE
350
86
  3
ACAD_VISUALSTYLE
350
2A
  0
SUN
  5
3F
330
29
100
AcDbSun
 90
        1
290
     0
 63
     7
421
 16777215
 40
1.0
291
     1
 91
  2455826
 92
 54000000
292
     0
 70
     2
 71
   256
280
     1
  0
DICTIONARY
  5
D
102
{ACAD_REACTORS
330
C
102
}
330
C
100
AcDbDictionary
281
     1
  0
DICTIONARY
  5
1A
102
{ACAD_REACTORS
330
C
102
}
330
C
100
AcDbDictionary
281
     1
  3
Layout1
350
1E
  3
Layout2
350
26
  3
Model
350
22
  0
DICTIONARY
  5
3B
102
{ACAD_REACTORS
330
C
102
}
330
C
100
AcDbDictionary
281
     1
  3
ByBlock
350
3D
  3
ByLayer
350
3C
  3
Global
350
3E
  0
DICTIONARY
  5
87
102
{ACAD_REACTORS
330
C
102
}
330
C
100
AcDbDictionary
281
     1
  0
DICTIONARY
  5
17
102
{ACAD_REACTORS
330
C
102
}
330
C
100
AcDbDictionary
281
     1
  3
Standard
350
18
  0
DICTIONARY
  5
19
102
{ACAD_REACTORS
330
C
102
}
330
C
100
AcDbDictionary
281
     1
  0
ACDBDICTIONARYWDFLT
  5
E
102
{ACAD_REACTORS
330
C
102
}
330
C
100
AcDbDictionary
281
     1
  3
Normal
350
F
100
AcDbDictionaryWithDefault
340
F
  0
DICTIONARY
  5
86
102
{ACAD_REACTORS
330
C
102
}
330
C
100
AcDbDictionary
281
     1
  0
DICTIONARY
  5
2A
102
{ACAD_REACTORS
330
C
102
}
330
C
100
AcDbDictionary
281
     1
  3
2dWireframe
350
2F
  3
3D Hidden
350
31
  3
3dWireframe
350
30
  3
Basic
350
32
  3
Brighten
350
36
  3
ColorChange
350
3A
  3
Conceptual
350
34
  3
Dim
350
35
  3
Facepattern
350
39
  3
Flat
350
2B
  3
FlatWithEdges
350
2C
  3
Gouraud
350
2D
  3
GouraudWithEdges
350
2E
  3
Linepattern
350
38
  3
Realistic
350
33
  3
Thicken
350
37
  0
LAYOUT
  5
1E
102
{ACAD_REACTORS
330
1A
102
}
330
1A
100
AcDbPlotSettings
  1

  2
none_device
  4

  6

 40
0.0
 41
0.0
 42
0.0
 43
0.0
 44
0.0
 45
0.0
 46
0.0
 47
0.0
 48
0.0
 49
0.0
140
0.0
141
0.0
142
1.0
143
1.0
 70
   688
 72
     0
 73
     0
 74
     5
  7

 75
    16
 76
     0
 77
     2
 78
   300
147
1.0
148
0.0
149
0.0
100
AcDbLayout
  1
Layout1
 70
     1
 71
     1
 10
0.0
 20
0.0
 11
12.0
 21
9.0
 12
0.0
 22
0.0
 32
0.0
 14
1.000000000000000E+20
 24
1.000000000000000E+20
 34
1.000000000000000E+20
 15
-1.000000000000000E+20
 25
-1.000000000000000E+20
 35
-1.000000000000000E+20
146
0.0
 13
0.0
 23
0.0
 33
0.0
 16
1.0
 26
0.0
 36
0.0
 17
0.0
 27
1.0
 37
0.0
 76
     0
330
1B
  0
LAYOUT
  5
26
102
{ACAD_REACTORS
330
1A
102
}
330
1A
100
AcDbPlotSettings
  1

  2
none_device
  4

  6

 40
0.0
 41
0.0
 42
0.0
 43
0.0
 44
0.0
 45
0.0
 46
0.0
 47
0.0
 48
0.0
 49
0.0
140
0.0
141
0.0
142
1.0
143
1.0
 70
   688
 72
     0
 73
     0
 74
     5
  7

 75
    16
 76
     0
 77
     2
 78
   300
147
1.0
148
0.0
149
0.0
100
AcDbLayout
  1
Layout2
 70
     1
 71
     2
 10
0.0
 20
0.0
 11
0.0
 21
0.0
 12
0.0
 22
0.0
 32
0.0
 14
0.0
 24
0.0
 34
0.0
 15
0.0
 25
0.0
 35
0.0
146
0.0
 13
0.0
 23
0.0
 33
0.0
 16
1.0
 26
0.0
 36
0.0
 17
0.0
 27
1.0
 37
0.0
 76
     0
330
23
  0
LAYOUT
  5
22
102
{ACAD_REACTORS
330
1A
102
}
330
1A
100
AcDbPlotSettings
  1

  2
none_device
  4

  6

 40
0.0
 41
0.0
 42
0.0
 43
0.0
 44
0.0
 45
0.0
 46
0.0
 47
0.0
 48
0.0
 49
0.0
140
0.0
141
0.0
142
1.0
143
1.0
 70
  1712
 72
     0
 73
     0
 74
     0
  7

 75
     0
 76
     0
 77
     2
 78
   300
147
1.0
148
0.0
149
0.0
100
AcDbLayout
  1
Model
 70
     1
 71
     0
 10
0.0
 20
0.0
 11
12.0
 21
9.0
 12
0.0
 22
0.0
 32
0.0
 14
1.000000000000000E+20
 24
1.000000000000000E+20
 34
1.000000000000000E+20
 15
-1.000000000000000E+20
 25
-1.000000000000000E+20
 35
-1.000000000000000E+20
146
0.0
 13
0.0
 23
0.0
 33
0.0
 16
1.0
 26
0.0
 36
0.0
 17
0.0
 27
1.0
 37
0.0
 76
     0
330
1F
331
29
  0
MATERIAL
  5
3D
102
{ACAD_REACTORS
330
3B
102
}
330
3B
100
AcDbMaterial
  1
ByBlock
 72
     1
 94
      127
  0
MATERIAL
  5
3C
102
{ACAD_REACTORS
330
3B
102
}
330
3B
100
AcDbMaterial
  1
ByLayer
 72
     1
 94
      127
  0
MATERIAL
  5
3E
102
{ACAD_REACTORS
330
3B
102
}
330
3B
100
AcDbMaterial
  1
Global
 72
     1
 94
      127
  0
MLINESTYLE
  5
18
102
{ACAD_REACTORS
330
17
102
}
330
17
100
AcDbMlineStyle
  2
Standard
 70
     0
  3

 62
   256
 51
90.0
 52
90.0
 71
     2
 49
0.5
 62
   256
  6
BYLAYER
 49
-0.5
 62
   256
  6
BYLAYER
  0
ACDBPLACEHOLDER
  5
F
102
{ACAD_REACTORS
330
E
102
}
330
E
  0
VISUALSTYLE
  5
2F
102
{ACAD_REACTORS
330
2A
102
}
330
2A
100
AcDbVisualStyle
  2
2dWireframe
 70
     4
177
     2
291
     0
 71
     0
176
     1
 72
     2
176
     1
 73
     0
176
     1
 90
        0
176
     1
 40
-0.6
176
     1
 41
-30.0
176
     1
 62
     5
 63
     7
421
 16777215
176
     1
 74
     1
176
     1
 91
        4
176
     1
 64
     7
176
     1
 65
   257
176
     1
 75
     1
176
     1
175
     1
176
     1
 42
1.0
176
     1
 92
        0
176
     1
 66
   257
176
     1
 43
1.0
176
     1
 76
     1
176
     1
 77
     6
176
     1
 78
     2
176
     1
 67
     7
176
     1
 79
     5
176
     1
170
     0
176
     1
171
     0
176
     1
290
     0
176
     1
 93
        1
176
     1
 44
0.0
176
     1
173
     0
176
     1
  0
VISUALSTYLE
  5
31
102
{ACAD_REACTORS
330
2A
102
}
330
2A
100
AcDbVisualStyle
  2
3D Hidden
 70
     6
177
     2
291
     0
 71
     1
176
     1
 72
     2
176
     1
 73
     2
176
     1
 90
        0
176
     1
 40
-0.6
176
     1
 41
-30.0
176
     1
 62
     5
 63
     7
421
 16777215
176
     1
 74
     2
176
     1
 91
        2
176
     1
 64
     7
176
     1
 65
   257
176
     1
 75
     2
176
     1
175
     1
176
     1
 42
40.0
176
     1
 92
        0
176
     1
 66
   257
176
     1
 43
1.0
176
     1
 76
     1
176
     1
 77
     6
176
     1
 78
     2
176
     1
 67
     7
176
     1
 79
     3
176
     1
170
     0
176
     1
171
     0
176
     1
290
     0
176
     1
 93
        1
176
     1
 44
0.0
176
     1
173
     0
176
     1
  0
VISUALSTYLE
  5
30
102
{ACAD_REACTORS
330
2A
102
}
330
2A
100
AcDbVisualStyle
  2
3dWireframe
 70
     5
177
     2
291
     0
 71
     0
176
     1
 72
     2
176
     1
 73
     0
176
     1
 90
        0
176
     1
 40
-0.6
176
     1
 41
-30.0
176
     1
 62
     5
 63
     7
421
 16777215
176
     1
 74
     1
176
     1
 91
        4
176
     1
 64
     7
176
     1
 65
   257
176
     1
 75
     1
176
     1
175
     1
176
     1
 42
1.0
176
     1
 92
        0
176
     1
 66
   257
176
     1
 43
1.0
176
     1
 76
     1
176
     1
 77
     6
176
     1
 78
     2
176
     1
 67
     7
176
     1
 79
     5
176
     1
170
     0
176
     1
171
     0
176
     1
290
     0
176
     1
 93
        1
176
     1
 44
0.0
176
     1
173
     0
176
     1
  0
VISUALSTYLE
  5
32
102
{ACAD_REACTORS
330
2A
102
}
330
2A
100
AcDbVisualStyle
  2
Basic
 70
     7
177
     2
291
     1
 71
     1
176
     1
 72
     0
176
     1
 73
     1
176
     1
 90
        0
176
     1
 40
-0.6
176
     1
 41
-30.0
176
     1
 62
     5
 63
     7
421
 16777215
176
     1
 74
     0
176
     1
 91
        4
176
     1
 64
     7
176
     1
 65
   257
176
     1
 75
     1
176
     1
175
     1
176
     1
 42
1.0
176
     1
 92
        8
176
     1
 66
     7
176
     1
 43
1.0
176
     1
 76
     1
176
     1
 77
     6
176
     1
 78
     2
176
     1
 67
     7
176
     1
 79
     5
176
     1
170
     0
176
     1
171
     0
176
     1
290
     0
176
     1
 93
        1
176
     1
 44
0.0
176
     1
173
     0
176
     1
  0
VISUALSTYLE
  5
36
102
{ACAD_REACTORS
330
2A
102
}
330
2A
100
AcDbVisualStyle
  2
Brighten
 70
    12
177
     2
291
     1
 71
     2
176
     1
 72
     2
176
     1
 73
     0
176
     1
 90
        0
176
     1
 40
-0.6
176
     1
 41
-30.0
176
     1
 62
     5
 63
     7
421
 16777215
176
     1
 74
     1
176
     1
 91
        4
176
     1
 64
     7
176
     1
 65
   257
176
     1
 75
     1
176
     1
175
     1
176
     1
 42
1.0
176
     1
 92
        8
176
     1
 66
     7
176
     1
 43
1.0
176
     1
 76
     1
176
     1
 77
     6
176
     1
 78
     2
176
     1
 67
     7
176
     1
 79
     5
176
     1
170
     0
176
     1
171
     0
176
     1
290
     0
176
     1
 93
        1
176
     1
 44
50.0
176
     1
173
     0
176
     1
  0
VISUALSTYLE
  5
3A
102
{ACAD_REACTORS
330
2A
102
}
330
2A
100
AcDbVisualStyle
  2
ColorChange
 70
    16
177
     2
291
     1
 71
     2
176
     1
 72
     2
176
     1
 73
     3
176
     1
 90
        0
176
     1
 40
-0.6
176
     1
 41
-30.0
176
     1
 62
     5
 63
     8
421
  8421504
176
     1
 74
     1
176
     1
 91
        4
176
     1
 64
     7
176
     1
 65
   257
176
     1
 75
     1
176
     1
175
     1
176
     1
 42
1.0
176
     1
 92
        8
176
     1
 66
     8
424
  8421504
176
     1
 43
1.0
176
     1
 76
     1
176
     1
 77
     6
176
     1
 78
     2
176
     1
 67
     7
176
     1
 79
     5
176
     1
170
     0
176
     1
171
     0
176
     1
290
     0
176
     1
 93
        1
176
     1
 44
0.0
176
     1
173
     0
176
     1
  0
VISUALSTYLE
  5
34
102
{ACAD_REACTORS
330
2A
102
}
330
2A
100
AcDbVisualStyle
  2
Conceptual
 70
     9
177
     2
291
     0
 71
     3
176
     1
 72
     2
176
     1
 73
     0
176
     1
 90
        0
176
     1
 40
-0.6
176
     1
 41
-30.0
176
     1
 62
     5
 63
     7
421
 16777215
176
     1
 74
     2
176
     1
 91
        2
176
     1
 64
     7
176
     1
 65
   257
176
     1
 75
     1
176
     1
175
     1
176
     1
 42
40.0
176
     1
 92
        8
176
     1
 66
     7
176
     1
 43
1.0
176
     1
 76
     1
176
     1
 77
     6
176
     1
 78
     2
176
     1
 67
     7
176
     1
 79
     3
176
     1
170
     0
176
     1
171
     0
176
     1
290
     0
176
     1
 93
        1
176
     1
 44
0.0
176
     1
173
     0
176
     1
  0
VISUALSTYLE
  5
35
102
{ACAD_REACTORS
330
2A
102
}
330
2A
100
AcDbVisualStyle
  2
Dim
 70
    11
177
     2
291
     1
 71
     2
176
     1
 72
     2
176
     1
 73
     0
176
     1
 90
        0
176
     1
 40
-0.6
176
     1
 41
-30.0
176
     1
 62
     5
 63
     7
421
 16777215
176
     1
 74
     1
176
     1
 91
        4
176
     1
 64
     7
176
     1
 65
   257
176
     1
 75
     1
176
     1
175
     1
176
     1
 42
1.0
176
     1
 92
        8
176
     1
 66
     7
176
     1
 43
1.0
176
     1
 76
     1
176
     1
 77
     6
176
     1
 78
     2
176
     1
 67
     7
176
     1
 79
     5
176
     1
170
     0
176
     1
171
     0
176
     1
290
     0
176
     1
 93
        1
176
     1
 44
-50.0
176
     1
173
     0
176
     1
  0
VISUALSTYLE
  5
39
102
{ACAD_REACTORS
330
2A
102
}
330
2A
100
AcDbVisualStyle
  2
Facepattern
 70
    15
177
     2
291
     1
 71
     2
176
     1
 72
     2
176
     1
 73
     0
176
     1
 90
        0
176
     1
 40
-0.6
176
     1
 41
-30.0
176
     1
 62
     5
 63
     7
421
 16777215
176
     1
 74
     1
176
     1
 91
        4
176
     1
 64
     7
176
     1
 65
   257
176
     1
 75
     1
176
     1
175
     1
176
     1
 42
1.0
176
     1
 92
        8
176
     1
 66
     7
176
     1
 43
1.0
176
     1
 76
     1
176
     1
 77
     6
176
     1
 78
     2
176
     1
 67
     7
176
     1
 79
     5
176
     1
170
     0
176
     1
171
     0
176
     1
290
     0
176
     1
 93
        1
176
     1
 44
0.0
176
     1
173
     0
176
     1
  0
VISUALSTYLE
  5
2B
102
{ACAD_REACTORS
330
2A
102
}
330
2A
100
AcDbVisualStyle
  2
Flat
 70
     0
177
     2
291
     1
 71
     2
176
     1
 72
     1
176
     1
 73
     1
176
     1
 90
        2
176
     1
 40
-0.6
176
     1
 41
30.0
176
     1
 62
     5
 63
     7
421
 16777215
176
     1
 74
     0
176
     1
 91
        4
176
     1
 64
     7
176
     1
 65
   257
176
     1
 75
     1
176
     1
175
     1
176
     1
 42
1.0
176
     1
 92
        8
176
     1
 66
     7
176
     1
 43
1.0
176
     1
 76
     1
176
     1
 77
     6
176
     1
 78
     2
176
     1
 67
     7
176
     1
 79
     5
176
     1
170
     0
176
     1
171
     0
176
     1
290
     0
176
     1
 93
       13
176
     1
 44
0.0
176
     1
173
     0
176
     1
  0
VISUALSTYLE
  5
2C
102
{ACAD_REACTORS
330
2A
102
}
330
2A
100
AcDbVisualStyle
  2
FlatWithEdges
 70
     1
177
     2
291
     1
 71
     2
176
     1
 72
     1
176
     1
 73
     1
176
     1
 90
        2
176
     1
 40
-0.6
176
     1
 41
30.0
176
     1
 62
     5
 63
     7
421
 16777215
176
     1
 74
     1
176
     1
 91
        4
176
     1
 64
     7
176
     1
 65
   257
176
     1
 75
     1
176
     1
175
     1
176
     1
 42
1.0
176
     1
 92
        0
176
     1
 66
   257
176
     1
 43
1.0
176
     1
 76
     1
176
     1
 77
     6
176
     1
 78
     2
176
     1
 67
     7
176
     1
 79
     5
176
     1
170
     0
176
     1
171
     0
176
     1
290
     0
176
     1
 93
       13
176
     1
 44
0.0
176
     1
173
     0
176
     1
  0
VISUALSTYLE
  5
2D
102
{ACAD_REACTORS
330
2A
102
}
330
2A
100
AcDbVisualStyle
  2
Gouraud
 70
     2
177
     2
291
     1
 71
     2
176
     1
 72
     2
176
     1
 73
     1
176
     1
 90
        2
176
     1
 40
-0.6
176
     1
 41
30.0
176
     1
 62
     5
 63
     7
421
 16777215
176
     1
 74
     0
176
     1
 91
        4
176
     1
 64
     7
176
     1
 65
   257
176
     1
 75
     1
176
     1
175
     1
176
     1
 42
1.0
176
     1
 92
        0
176
     1
 66
     7
176
     1
 43
1.0
176
     1
 76
     1
176
     1
 77
     6
176
     1
 78
     2
176
     1
 67
     7
176
     1
 79
     5
176
     1
170
     0
176
     1
171
     0
176
     1
290
     0
176
     1
 93
       13
176
     1
 44
0.0
176
     1
173
     0
176
     1
  0
VISUALSTYLE
  5
2E
102
{ACAD_REACTORS
330
2A
102
}
330
2A
100
AcDbVisualStyle
  2
GouraudWithEdges
 70
     3
177
     2
291
     1
 71
     2
176
     1
 72
     2
176
     1
 73
     1
176
     1
 90
        2
176
     1
 40
-0.6
176
     1
 41
30.0
176
     1
 62
     5
 63
     7
421
 16777215
176
     1
 74
     1
176
     1
 91
        4
176
     1
 64
     7
176
     1
 65
   257
176
     1
 75
     1
176
     1
175
     1
176
     1
 42
1.0
176
     1
 92
        0
176
     1
 66
   257
176
     1
 43
1.0
176
     1
 76
     1
176
     1
 77
     6
176
     1
 78
     2
176
     1
 67
     7
176
     1
 79
     5
176
     1
170
     0
176
     1
171
     0
176
     1
290
     0
176
     1
 93
       13
176
     1
 44
0.0
176
     1
173
     0
176
     1
  0
VISUALSTYLE
  5
38
102
{ACAD_REACTORS
330
2A
102
}
330
2A
100
AcDbVisualStyle
  2
Linepattern
 70
    14
177
     2
291
     1
 71
     2
176
     1
 72
     2
176
     1
 73
     0
176
     1
 90
        0
176
     1
 40
-0.6
176
     1
 41
-30.0
176
     1
 62
     5
 63
     7
421
 16777215
176
     1
 74
     1
176
     1
 91
        4
176
     1
 64
     7
176
     1
 65
   257
176
     1
 75
     7
176
     1
175
     7
176
     1
 42
1.0
176
     1
 92
        8
176
     1
 66
     7
176
     1
 43
1.0
176
     1
 76
     1
176
     1
 77
     6
176
     1
 78
     2
176
     1
 67
     7
176
     1
 79
     5
176
     1
170
     0
176
     1
171
     0
176
     1
290
     0
176
     1
 93
        1
176
     1
 44
0.0
176
     1
173
     0
176
     1
  0
VISUALSTYLE
  5
33
102
{ACAD_REACTORS
330
2A
102
}
330
2A
100
AcDbVisualStyle
  2
Realistic
 70
     8
177
     2
291
     0
 71
     2
176
     1
 72
     2
176
     1
 73
     0
176
     1
 90
        0
176
     1
 40
-0.6
176
     1
 41
-30.0
176
     1
 62
     5
 63
     7
421
 16777215
176
     1
 74
     1
176
     1
 91
        0
176
     1
 64
     7
176
     1
 65
   257
176
     1
 75
     1
176
     1
175
     1
176
     1
 42
1.0
176
     1
 92
        8
176
     1
 66
     8
424
  7895160
176
     1
 43
1.0
176
     1
 76
     1
176
     1
 77
     6
176
     1
 78
     2
176
     1
 67
     7
176
     1
 79
     5
176
     1
170
     0
176
     1
171
     0
176
     1
290
     0
176
     1
 93
       13
176
     1
 44
0.0
176
     1
173
     0
176
     1
  0
VISUALSTYLE
  5
37
102
{ACAD_REACTORS
330
2A
102
}
330
2A
100
AcDbVisualStyle
  2
Thicken
 70
    13
177
     2
291
     1
 71
     2
176
     1
 72
     2
176
     1
 73
     0
176
     1
 90
        0
176
     1
 40
-0.6
176
     1
 41
-30.0
176
     1
 62
     5
 63
     7
421
 16777215
176
     1
 74
     1
176
     1
 91
        4
176
     1
 64
     7
176
     1
 65
   257
176
     1
 75
     1
176
     1
175
     1
176
     1
 42
1.0
176
     1
 92
       12
176
     1
 66
     7
176
     1
 43
1.0
176
     1
 76
     1
176
     1
 77
     6
176
     1
 78
     2
176
     1
 67
     7
176
     1
 79
     5
176
     1
170
     0
176
     1
171
     0
176
     1
290
     0
176
     1
 93
        1
176
     1
 44
0.0
176
     1
173
     0
176
     1
  0
ENDSEC
  0
EOF
