<?xml version="1.0" encoding="utf-8"?>
<!-- Generator: Adobe Illustrator 19.0.0, SVG Export Plug-In . SVG Version: 6.00 Build 0)  -->
<svg version="1.1" id="Layer_1" xmlns="http://www.w3.org/2000/svg" xmlns:xlink="http://www.w3.org/1999/xlink" x="0px" y="0px"
	 viewBox="0 0 406 110" style="enable-background:new 0 0 406 110;" xml:space="preserve">
<style type="text/css">
	.st0{fill:none;stroke:#000000;stroke-miterlimit:10;}
	.st1{fill:none;}
</style>
<g id="XMLID_3_">
	<g id="XMLID_6_">
		<path id="XMLID_53_" d="M49.6,92.5c-4.3,0-8.2-0.8-11.9-2.5c-3.7-1.7-6.9-4.1-9.6-7.4c-2.7-3.2-4.8-7.2-6.4-11.8
			c-1.5-4.7-2.3-10-2.3-15.9c0-5.8,0.7-11,2.2-15.6c1.5-4.6,3.6-8.6,6.2-11.8c2.6-3.2,5.8-5.7,9.3-7.4c3.6-1.7,7.5-2.6,11.8-2.6
			c4.3,0,8.2,0.9,11.8,2.6c3.6,1.7,6.8,4.2,9.4,7.4c2.6,3.2,4.7,7.1,6.1,11.8c1.5,4.6,2.2,9.8,2.2,15.6c0,5.8-0.7,11.1-2.1,15.7
			c-1.4,4.6-3.4,8.6-6,11.8c-2.6,3.3-5.6,5.7-9.2,7.5C57.6,91.6,53.8,92.5,49.6,92.5z M49,30.4c-4.9,0-8.9,2-12,6.1
			c-3.1,4.1-4.7,10.2-4.7,18.4c0,4.1,0.4,7.6,1.3,10.7c0.9,3.1,2.1,5.6,3.6,7.7c1.5,2,3.3,3.6,5.3,4.6c2,1,4.2,1.5,6.5,1.5
			c2.4,0,4.6-0.5,6.6-1.5c2-1,3.8-2.5,5.3-4.6c1.5-2,2.7-4.6,3.5-7.7c0.8-3.1,1.3-6.7,1.3-10.7c0-8.2-1.4-14.3-4.3-18.4
			C58.4,32.4,54.3,30.4,49,30.4z"/>
		<path id="XMLID_56_" d="M102.7,43.3v48.2h-13v-73h15l23.5,46v-46h13v73h-14L102.7,43.3z"/>
		<path id="XMLID_58_" d="M216.6,18.5l21.5,73h-14.1l-3.9-13.6h-23.9l-3.8,13.6h-14.1l21.5-73H216.6z M199.8,65h16.9l-8.5-29.6
			L199.8,65z"/>
		<path id="XMLID_61_" d="M245.3,18.5h13.1v73h-13.1V18.5z"/>
		<path id="XMLID_63_" d="M294.4,63.7h-10.3v27.7H271v-73h27.2c3.3,0,6.4,0.5,9.1,1.5c2.7,1,5.1,2.5,7,4.4c1.9,1.9,3.4,4.3,4.5,7.1
			c1.1,2.8,1.6,6,1.6,9.5c0,10.3-4.3,17.3-12.8,21l13.8,29.4h-14.1L294.4,63.7z M284.1,31.4v19.3h13.8c6.4,0,9.6-3,9.6-9.1
			c0-6.8-3.2-10.2-9.6-10.2H284.1z"/>
	</g>
	<g id="XMLID_5_">
		<path id="XMLID_9_" d="M352.9,41.9c0-4.2,0-8.4,0-12.6c0.1-6.9,4.9-11.9,11.4-11.8c6.4,0,11.2,5,11.2,11.7
			c0.1,8.4,0.1,16.8,0,25.2c-0.1,6.8-4.8,11.7-11.1,11.8c-6.5,0.1-11.4-4.8-11.5-11.7C352.8,50.3,352.9,46.1,352.9,41.9z"/>
		<path id="XMLID_8_" d="M354.9,92.5c0-2.5,0-4.7,0-7.3c1.8,0,3.5,0,5.4,0c0-2.3,0-4.3,0-6.5c-0.5-0.2-1.1-0.4-1.7-0.6
			c-9.6-2.7-15.9-10.5-16.5-20.5c-0.1-2.3-0.1-4.7,0-7c0.1-2.6,1.6-4.1,3.9-4c2.2,0,3.6,1.6,3.6,4.2c0.1,2.9-0.1,5.9,0.4,8.8
			c1.4,7.4,8.2,12.5,15.5,11.8c7.7-0.7,13.4-6.9,13.6-14.6c0-2.2-0.1-4.4,0-6.5c0.1-2.1,1.3-3.5,3.5-3.6c2.2-0.2,3.8,1,4,3.1
			c0.9,9.6-0.4,18.6-8.9,24.7c-2.7,2-6,3.1-9.4,4.8c0,1.5,0,3.5,0,5.8c1.8,0,3.5,0,5.4,0c0,2.6,0,4.9,0,7.4
			C367.4,92.5,361.2,92.5,354.9,92.5z"/>
	</g>
</g>
<rect id="XMLID_66_" class="st0" width="406" height="110"/>
<rect id="XMLID_1_" x="8.1" y="10.2" class="st1" width="387.7" height="90.4"/>
</svg>
